<svg id="Americanexpress_x2C__american_x2C__express_x2C__debit_x2C_" xmlns="http://www.w3.org/2000/svg" width="32.391" height="20.239" viewBox="0 0 32.391 20.239">
  <g id="Group_339" data-name="Group 339" transform="translate(0 0)">
    <path id="Path_540" data-name="Path 540" d="M48.393,125.207a1.08,1.08,0,0,1-1.083,1.077H17.085A1.08,1.08,0,0,1,16,125.207V107.122a1.084,1.084,0,0,1,1.083-1.077H47.31a1.084,1.084,0,0,1,1.083,1.077v18.085Z" transform="translate(-16.002 -106.045)" fill="#0a78a9" fill-rule="evenodd"/>
    <path id="Path_541" data-name="Path 541" d="M73.976,190.027V189.7l-.152.322H72.479l-.164-.347v.347H69.808l-.3-.7h-.5l-.316.7H67.4v-2.118l.949-2.154h1.826l.255.608v-.6h2.227l.493,1.029.481-1.035h7.04a1.2,1.2,0,0,1,.615.164v-.164h1.771v.231a1.469,1.469,0,0,1,.791-.231H86.98l.274.62v-.62h2l.365.62v-.62h1.917v4.272H89.572l-.462-.742v.742H86.657l-.347-.767h-.475l-.322.767H84.029a1.907,1.907,0,0,1-.968-.3v.3H80.11v-1c0-.146-.11-.134-.11-.134h-.11v1.132Z" transform="translate(-63.93 -180.377)" fill="#fff" fill-rule="evenodd"/>
    <path id="Path_542" data-name="Path 542" d="M143.055,262.764h3.876l.56.633.572-.633h2.981a1.382,1.382,0,0,1,.548.146v-.146h2.653a1.332,1.332,0,0,1,.621.17v-.17h3.414v.158a1.139,1.139,0,0,1,.566-.158h2.227v.158a1.337,1.337,0,0,1,.572-.158h1.746v4.028a.966.966,0,0,1-.706.261h-2.3v-.128a1.187,1.187,0,0,1-.554.128h-6.109v-1.041c0-.1-.042-.121-.134-.121H153.5v1.162h-1.911V265.9a1.277,1.277,0,0,1-.566.116h-.688v1.041h-2.355l-.535-.657-.572.657h-3.821Z" transform="translate(-134.481 -252.188)" fill="#fff" fill-rule="evenodd"/>
    <path id="Path_543" data-name="Path 543" d="M324.125,272.32h2.434v.651h-1.686v.566h1.637v.578h-1.637v.6h1.686v.639h-2.434Z" transform="translate(-303.332 -261.099)" fill="#0a78a9" fill-rule="evenodd"/>
    <path id="Path_544" data-name="Path 544" d="M407.78,273.582c.913.042.986.505.986.992a.881.881,0,0,1-.949.87h-1.564v-.651h1.217c.207,0,.511,0,.511-.292,0-.134-.049-.225-.273-.249-.1-.012-.457-.03-.512-.03-.827-.025-1.016-.438-1.016-.937a.832.832,0,0,1,.883-.877h1.564v.651h-1.144c-.262,0-.541-.03-.541.262,0,.183.14.225.316.237.061,0,.469.024.524.024Z" transform="translate(-379.849 -261.181)" fill="#0a78a9" fill-rule="evenodd"/>
    <path id="Path_545" data-name="Path 545" d="M366.213,273.582c.913.042.992.505.992.992a.886.886,0,0,1-.955.87h-1.564v-.651h1.223c.2,0,.512,0,.512-.292,0-.134-.055-.225-.274-.249-.1-.012-.462-.03-.511-.03-.828-.025-1.022-.438-1.022-.937a.836.836,0,0,1,.888-.877h1.564v.651h-1.144c-.261,0-.541-.03-.541.262,0,.183.14.225.316.237.061,0,.462.024.517.024Z" transform="translate(-341.088 -261.181)" fill="#0a78a9" fill-rule="evenodd"/>
    <path id="Path_546" data-name="Path 546" d="M157.764,272.326h-2.61l-.852.937-.828-.943h-2.933v3.03h2.836l.894-1,.876,1.01h1.424v-1.029h1c.383,0,1.089-.012,1.089-1.077a.84.84,0,0,0-.9-.925Zm-4.771,2.385h-1.716v-.6h1.637v-.578h-1.637v-.566l1.807.006.724.822Zm2.842.353-1.071-1.266,1.071-1.18Zm1.679-1.363h-.931v-.724h.931c.31,0,.414.195.414.347,0,.2-.109.377-.414.377Z" transform="translate(-141.462 -261.099)" fill="#0a78a9" fill-rule="evenodd"/>
    <path id="Path_547" data-name="Path 547" d="M278.914,274.056a.823.823,0,0,0,.511-.84.794.794,0,0,0-.888-.81H276.6v3.031h.742v-1.071h.974c.255,0,.359.256.365.517l.018.554h.724l-.024-.621c0-.493-.134-.718-.487-.761Zm-.645-.311h-.925v-.688h.931c.311,0,.408.195.408.347,0,.2-.11.341-.414.341Z" transform="translate(-259.015 -261.181)" fill="#0a78a9" fill-rule="evenodd"/>
    <rect id="Rectangle_461" data-name="Rectangle 461" width="0.742" height="3.03" transform="translate(17.884 5.987)" fill="#0a78a9"/>
    <path id="Path_548" data-name="Path 548" d="M190.667,194.77H193.1v.657h-1.686v.566h1.637v.572h-1.637v.6H193.1v.633h-2.434Z" transform="translate(-178.88 -188.783)" fill="#0a78a9" fill-rule="evenodd"/>
    <path id="Path_549" data-name="Path 549" d="M235.633,196.425a.827.827,0,0,0,.511-.84.8.8,0,0,0-.889-.815h-1.935v3.03h.742v-1.065h.974c.256,0,.359.256.365.511l.018.554h.724l-.025-.62c0-.487-.134-.718-.487-.755Zm-.645-.316h-.925v-.688h.931a.356.356,0,0,1,.408.347c0,.207-.11.341-.414.341Z" transform="translate(-218.656 -188.783)" fill="#0a78a9" fill-rule="evenodd"/>
    <path id="Path_550" data-name="Path 550" d="M74,194.77l-.913,2.032-.907-2.032H71.014v2.921l-1.3-2.921h-.986L67.4,197.8h.791l.286-.675h1.485l.3.675h1.5v-2.245l1,2.245h.675l1.016-2.209V197.8h.742v-3.03Zm-5.245,1.7.444-1.059.462,1.059Z" transform="translate(-63.931 -188.783)" fill="#0a78a9" fill-rule="evenodd"/>
    <path id="Path_551" data-name="Path 551" d="M304.91,194.77v2.1l-1.254-2.1h-1.1v2.848l-1.266-2.848H300.3l-1.029,2.349s-.432,0-.474-.012c-.183-.037-.462-.164-.462-.694v-.225c0-.706.383-.761.876-.761h.462v-.657H298.7c-.335,0-1.071.256-1.1,1.5-.018.84.347,1.534,1.168,1.534h.986l.292-.682h1.485l.292.682H303.3v-2.221l1.339,2.221h1.016V194.77Zm-4.57,1.7.444-1.059.462,1.059Z" transform="translate(-278.604 -188.783)" fill="#0a78a9" fill-rule="evenodd"/>
  </g>
</svg>
