<svg id="Discover_x2C___bank_x2C__debit_x2C__card" xmlns="http://www.w3.org/2000/svg" xmlns:xlink="http://www.w3.org/1999/xlink" width="32.385" height="20.239" viewBox="0 0 32.385 20.239">
  <defs>
    <clipPath id="clip-path">
      <path id="Path_21" data-name="Path 21" d="M239.5,232.645a1.59,1.59,0,0,0-1.618,1.558,1.616,1.616,0,1,0,1.618-1.558Z" transform="translate(-237.877 -232.645)"/>
    </clipPath>
  </defs>
  <g id="Group_338" data-name="Group 338" transform="translate(0 0)">
    <path id="Path_19" data-name="Path 19" d="M48.43,125.2a1.075,1.075,0,0,1-1.077,1.077H17.122a1.075,1.075,0,0,1-1.077-1.077V107.123a1.076,1.076,0,0,1,1.077-1.083H47.353a1.076,1.076,0,0,1,1.077,1.083Z" transform="translate(-16.045 -106.04)" fill="#f2f2f2" fill-rule="evenodd"/>
    <path id="Path_20" data-name="Path 20" d="M147.973,286.3h22.405a1.075,1.075,0,0,0,1.077-1.077v-7.582c-2.148,1.369-10.259,6.067-23.483,8.659Z" transform="translate(-139.07 -266.057)" fill="#f58220" fill-rule="evenodd"/>
    <g id="Group_337" data-name="Group 337" transform="translate(14.97 8.544)">
      <g id="Group_81" data-name="Group 81" clip-path="url(#clip-path)">
        <rect id="Rectangle_459" data-name="Rectangle 459" width="3.231" height="3.158" fill="#f48220"/>
      </g>
      <g id="Group_82" data-name="Group 82" clip-path="url(#clip-path)">
        <path id="Path_22" data-name="Path 22" d="M259.349,255.012c0-.006-.006-.006-.012-.006s-.006,0-.006.006,0,.012.006.012a.013.013,0,0,0,.012-.012Z" transform="translate(-257.883 -253.497)" fill="#ffeee1" fill-rule="evenodd"/>
      </g>
      <g id="Group_83" data-name="Group 83" clip-path="url(#clip-path)">
        <path id="Path_24" data-name="Path 24" d="M259.262,254.925c0,.006,0,.006-.006.006a.006.006,0,0,1-.006-.006l.006-.006a.006.006,0,0,1,.006.006Zm.012,0c0-.006-.012-.013-.018-.013a.013.013,0,0,0-.012.013c0,.006.006.018.012.018a.027.027,0,0,0,.018-.018Z" transform="translate(-257.802 -253.409)" fill="#ffeee1" fill-rule="evenodd"/>
      </g>
      <g id="Group_84" data-name="Group 84" clip-path="url(#clip-path)">
        <path id="Path_26" data-name="Path 26" d="M259.184,254.845a.012.012,0,0,1-.024,0,.012.012,0,1,1,.024,0Zm.012,0c0-.013-.013-.018-.025-.018a.016.016,0,0,0-.018.018c0,.012.006.024.018.024a.027.027,0,0,0,.025-.024Z" transform="translate(-257.718 -253.33)" fill="#ffeee0" fill-rule="evenodd"/>
      </g>
      <g id="Group_85" data-name="Group 85" clip-path="url(#clip-path)">
        <path id="Path_28" data-name="Path 28" d="M259.1,254.76a.018.018,0,0,1-.037,0,.018.018,0,1,1,.037,0Zm.012,0a.028.028,0,0,0-.03-.025.026.026,0,0,0-.025.025.028.028,0,0,0,.025.03.029.029,0,0,0,.03-.03Z" transform="translate(-257.631 -253.244)" fill="#ffeddf" fill-rule="evenodd"/>
      </g>
      <g id="Group_86" data-name="Group 86" clip-path="url(#clip-path)">
        <path id="Path_30" data-name="Path 30" d="M259.03,254.679a.025.025,0,0,1-.049,0,.025.025,0,0,1,.049,0Zm.012,0a.034.034,0,0,0-.036-.03.029.029,0,0,0-.03.03.034.034,0,0,0,.03.037.039.039,0,0,0,.036-.037Z" transform="translate(-257.551 -253.164)" fill="#ffeddf" fill-rule="evenodd"/>
      </g>
      <g id="Group_87" data-name="Group 87" clip-path="url(#clip-path)">
        <path id="Path_32" data-name="Path 32" d="M258.955,254.593a.03.03,0,1,1-.03-.03.029.029,0,0,1,.03.03Zm.013,0a.041.041,0,0,0-.043-.037.039.039,0,0,0-.036.037.04.04,0,0,0,.036.042.042.042,0,0,0,.043-.042Z" transform="translate(-257.471 -253.077)" fill="#ffedde" fill-rule="evenodd"/>
      </g>
      <g id="Group_88" data-name="Group 88" clip-path="url(#clip-path)">
        <path id="Path_34" data-name="Path 34" d="M258.869,254.506a.039.039,0,0,1-.037.037.037.037,0,1,1,.037-.037Zm.012,0a.047.047,0,0,0-.049-.043.042.042,0,0,0-.043.043.047.047,0,0,0,.043.049.052.052,0,0,0,.049-.049Z" transform="translate(-257.379 -252.991)" fill="#ffedde" fill-rule="evenodd"/>
      </g>
      <g id="Group_89" data-name="Group 89" clip-path="url(#clip-path)">
        <path id="Path_36" data-name="Path 36" d="M258.794,254.426a.043.043,0,1,1-.043-.043.041.041,0,0,1,.043.043Zm.012,0a.05.05,0,0,0-.054-.049.045.045,0,0,0-.049.049.05.05,0,0,0,.049.055.054.054,0,0,0,.054-.055Z" transform="translate(-257.297 -252.91)" fill="#ffedde" fill-rule="evenodd"/>
      </g>
      <g id="Group_90" data-name="Group 90" clip-path="url(#clip-path)">
        <path id="Path_38" data-name="Path 38" d="M258.72,254.34a.045.045,0,0,1-.049.049.048.048,0,0,1-.049-.049.052.052,0,0,1,.049-.049.048.048,0,0,1,.049.049Zm.012,0a.061.061,0,0,0-.061-.055.055.055,0,0,0-.055.055.06.06,0,0,0,.055.061.066.066,0,0,0,.061-.061Z" transform="translate(-257.217 -252.825)" fill="#ffedde" fill-rule="evenodd"/>
      </g>
      <g id="Group_91" data-name="Group 91" clip-path="url(#clip-path)">
        <path id="Path_40" data-name="Path 40" d="M258.64,254.253a.054.054,0,1,1-.054-.055.054.054,0,0,1,.054.055Zm.013,0a.063.063,0,0,0-.067-.061.058.058,0,0,0-.061.061.063.063,0,0,0,.061.067.067.067,0,0,0,.067-.067Z" transform="translate(-257.132 -252.738)" fill="#ffecdd" fill-rule="evenodd"/>
      </g>
      <g id="Group_92" data-name="Group 92" clip-path="url(#clip-path)">
        <path id="Path_42" data-name="Path 42" d="M258.561,254.173a.058.058,0,0,1-.061.061.061.061,0,0,1-.061-.061.066.066,0,0,1,.061-.061.061.061,0,0,1,.061.061Zm.012,0a.073.073,0,0,0-.073-.067.068.068,0,0,0-.067.067.073.073,0,0,0,.067.073.078.078,0,0,0,.073-.073Z" transform="translate(-257.046 -252.658)" fill="#ffecdd" fill-rule="evenodd"/>
      </g>
      <g id="Group_93" data-name="Group 93" clip-path="url(#clip-path)">
        <path id="Path_44" data-name="Path 44" d="M258.487,254.087a.067.067,0,1,1-.067-.067.067.067,0,0,1,.067.067Zm.012,0a.075.075,0,0,0-.079-.073.07.07,0,0,0-.073.073.075.075,0,0,0,.073.079.08.08,0,0,0,.079-.079Z" transform="translate(-256.966 -252.572)" fill="#ffecdd" fill-rule="evenodd"/>
      </g>
      <g id="Group_94" data-name="Group 94" clip-path="url(#clip-path)">
        <path id="Path_46" data-name="Path 46" d="M258.406,254.006a.073.073,0,1,1-.073-.073.07.07,0,0,1,.073.073Zm.012,0a.082.082,0,0,0-.085-.079.08.08,0,0,0-.079.079.082.082,0,0,0,.079.085.083.083,0,0,0,.085-.085Z" transform="translate(-256.879 -252.491)" fill="#ffecdd" fill-rule="evenodd"/>
      </g>
      <g id="Group_95" data-name="Group 95" clip-path="url(#clip-path)">
        <path id="Path_48" data-name="Path 48" d="M258.324,253.92a.079.079,0,1,1-.079-.079.08.08,0,0,1,.079.079Zm.012,0a.088.088,0,0,0-.091-.085.083.083,0,0,0-.085.085.089.089,0,0,0,.085.091.094.094,0,0,0,.091-.091Z" transform="translate(-256.791 -252.405)" fill="#ffecdd" fill-rule="evenodd"/>
      </g>
      <g id="Group_96" data-name="Group 96" clip-path="url(#clip-path)">
        <path id="Path_50" data-name="Path 50" d="M258.251,253.834a.085.085,0,1,1-.085-.085.083.083,0,0,1,.085.085Zm.012,0a.1.1,0,0,0-.1-.091.094.094,0,0,0-.091.091.1.1,0,0,0,.091.1.1.1,0,0,0,.1-.1Z" transform="translate(-256.712 -252.319)" fill="#ffebdc" fill-rule="evenodd"/>
      </g>
      <g id="Group_97" data-name="Group 97" clip-path="url(#clip-path)">
        <path id="Path_52" data-name="Path 52" d="M258.166,253.754a.091.091,0,1,1-.091-.091.094.094,0,0,1,.091.091Zm.012,0a.1.1,0,0,0-.1-.1.1.1,0,0,0-.1.1.1.1,0,0,0,.1.1.107.107,0,0,0,.1-.1Z" transform="translate(-256.621 -252.239)" fill="#ffebdc" fill-rule="evenodd"/>
      </g>
      <g id="Group_98" data-name="Group 98" clip-path="url(#clip-path)">
        <path id="Path_54" data-name="Path 54" d="M258.091,253.668a.1.1,0,1,1-.1-.1.1.1,0,0,1,.1.1Zm.012,0a.1.1,0,0,0-.109-.1.1.1,0,0,0-.1.1.1.1,0,0,0,.1.109.109.109,0,0,0,.109-.109Z" transform="translate(-256.539 -252.153)" fill="#ffebdc" fill-rule="evenodd"/>
      </g>
      <g id="Group_99" data-name="Group 99" clip-path="url(#clip-path)">
        <path id="Path_56" data-name="Path 56" d="M258.017,253.581a.1.1,0,1,1-.1-.1.107.107,0,0,1,.1.1Zm.012,0a.114.114,0,0,0-.116-.11.109.109,0,0,0-.109.11.114.114,0,0,0,.109.116.12.12,0,0,0,.116-.116Z" transform="translate(-256.459 -252.066)" fill="#ffebdc" fill-rule="evenodd"/>
      </g>
      <g id="Group_100" data-name="Group 100" clip-path="url(#clip-path)">
        <path id="Path_58" data-name="Path 58" d="M257.936,253.5a.109.109,0,1,1-.109-.11.109.109,0,0,1,.109.11Zm.012,0a.117.117,0,0,0-.122-.116.112.112,0,0,0-.116.116.117.117,0,0,0,.116.122.122.122,0,0,0,.122-.122Z" transform="translate(-256.373 -251.985)" fill="#ffebda" fill-rule="evenodd"/>
      </g>
      <g id="Group_101" data-name="Group 101" clip-path="url(#clip-path)">
        <path id="Path_60" data-name="Path 60" d="M257.856,253.414a.112.112,0,0,1-.116.116.116.116,0,0,1-.116-.116.12.12,0,0,1,.116-.116.115.115,0,0,1,.116.116Zm.012,0a.127.127,0,0,0-.128-.122.122.122,0,0,0-.122.122.127.127,0,0,0,.122.128.132.132,0,0,0,.128-.128Z" transform="translate(-256.286 -251.899)" fill="#ffebda" fill-rule="evenodd"/>
      </g>
      <g id="Group_102" data-name="Group 102" clip-path="url(#clip-path)">
        <path id="Path_62" data-name="Path 62" d="M257.781,253.334a.122.122,0,1,1-.122-.122.122.122,0,0,1,.122.122Zm.013,0a.13.13,0,0,0-.134-.128.125.125,0,0,0-.128.128.13.13,0,0,0,.128.134.135.135,0,0,0,.134-.134Z" transform="translate(-256.206 -251.819)" fill="#ffeada" fill-rule="evenodd"/>
      </g>
      <g id="Group_103" data-name="Group 103" clip-path="url(#clip-path)">
        <path id="Path_64" data-name="Path 64" d="M257.7,253.248a.125.125,0,0,1-.128.128.128.128,0,0,1-.128-.128.133.133,0,0,1,.128-.128.128.128,0,0,1,.128.128Zm.013,0a.137.137,0,0,0-.14-.134.135.135,0,0,0-.134.134.137.137,0,1,0,.274,0Z" transform="translate(-256.121 -251.733)" fill="#ffead9" fill-rule="evenodd"/>
      </g>
      <g id="Group_104" data-name="Group 104" clip-path="url(#clip-path)">
        <path id="Path_66" data-name="Path 66" d="M257.623,253.162a.134.134,0,1,1-.134-.134.136.136,0,0,1,.134.134Zm.012,0a.143.143,0,0,0-.146-.14.138.138,0,0,0-.14.14.143.143,0,0,0,.14.146.148.148,0,0,0,.146-.146Z" transform="translate(-256.035 -251.647)" fill="#ffead9" fill-rule="evenodd"/>
      </g>
      <g id="Group_105" data-name="Group 105" clip-path="url(#clip-path)">
        <path id="Path_68" data-name="Path 68" d="M257.547,253.082a.14.14,0,1,1-.14-.14.138.138,0,0,1,.14.14Zm.012,0a.149.149,0,1,0-.152.152.149.149,0,0,0,.152-.152Z" transform="translate(-255.953 -251.567)" fill="#ffead9" fill-rule="evenodd"/>
      </g>
      <g id="Group_106" data-name="Group 106" clip-path="url(#clip-path)">
        <path id="Path_70" data-name="Path 70" d="M257.466,252.994a.146.146,0,1,1-.146-.146.148.148,0,0,1,.146.146Zm.012,0a.156.156,0,0,0-.158-.152.151.151,0,0,0-.152.152.156.156,0,0,0,.152.158.161.161,0,0,0,.158-.158Z" transform="translate(-255.866 -251.479)" fill="#ffead8" fill-rule="evenodd"/>
      </g>
      <g id="Group_107" data-name="Group 107" clip-path="url(#clip-path)">
        <path id="Path_72" data-name="Path 72" d="M257.387,252.914a.152.152,0,1,1-.152-.152.151.151,0,0,1,.152.152Zm.012,0a.158.158,0,0,0-.164-.158.154.154,0,0,0-.158.158.159.159,0,0,0,.158.164.164.164,0,0,0,.164-.164Z" transform="translate(-255.78 -251.399)" fill="#ffead8" fill-rule="evenodd"/>
      </g>
      <g id="Group_108" data-name="Group 108" clip-path="url(#clip-path)">
        <path id="Path_74" data-name="Path 74" d="M257.313,252.828a.158.158,0,1,1-.158-.158.161.161,0,0,1,.158.158Zm.012,0a.169.169,0,0,0-.17-.164.164.164,0,0,0-.164.164.169.169,0,0,0,.164.17.174.174,0,0,0,.17-.17Z" transform="translate(-255.7 -251.313)" fill="#fee9d8" fill-rule="evenodd"/>
      </g>
      <g id="Group_109" data-name="Group 109" clip-path="url(#clip-path)">
        <path id="Path_76" data-name="Path 76" d="M257.234,252.742a.164.164,0,1,1-.164-.164.164.164,0,0,1,.164.164Zm.012,0a.172.172,0,0,0-.177-.17.166.166,0,0,0-.17.17.171.171,0,0,0,.17.176.177.177,0,0,0,.177-.176Z" transform="translate(-255.615 -251.227)" fill="#fde8d7" fill-rule="evenodd"/>
      </g>
      <g id="Group_110" data-name="Group 110" clip-path="url(#clip-path)">
        <path id="Path_78" data-name="Path 78" d="M257.153,252.662a.167.167,0,0,1-.17.17.17.17,0,0,1-.17-.17.174.174,0,0,1,.17-.17.17.17,0,0,1,.17.17Zm.012,0a.182.182,0,0,0-.183-.176.177.177,0,0,0-.177.176.182.182,0,0,0,.177.183.187.187,0,0,0,.183-.183Z" transform="translate(-255.529 -251.147)" fill="#fde8d7" fill-rule="evenodd"/>
      </g>
      <g id="Group_111" data-name="Group 111" clip-path="url(#clip-path)">
        <path id="Path_80" data-name="Path 80" d="M257.078,252.576a.177.177,0,1,1-.177-.176.177.177,0,0,1,.177.176Zm.012,0a.185.185,0,0,0-.189-.183.179.179,0,0,0-.183.183.184.184,0,0,0,.183.188.189.189,0,0,0,.189-.188Z" transform="translate(-255.447 -251.06)" fill="#fde9d6" fill-rule="evenodd"/>
      </g>
      <g id="Group_112" data-name="Group 112" clip-path="url(#clip-path)">
        <path id="Path_82" data-name="Path 82" d="M257,252.49a.179.179,0,0,1-.183.183.183.183,0,0,1-.183-.183.187.187,0,0,1,.183-.183.183.183,0,0,1,.183.183Zm.012,0a.2.2,0,0,0-.195-.189.189.189,0,0,0-.188.189.194.194,0,0,0,.188.195.2.2,0,0,0,.195-.195Z" transform="translate(-255.366 -250.975)" fill="#fde7d6" fill-rule="evenodd"/>
      </g>
      <g id="Group_113" data-name="Group 113" clip-path="url(#clip-path)">
        <path id="Path_84" data-name="Path 84" d="M256.917,252.41a.189.189,0,1,1-.189-.189.189.189,0,0,1,.189.189Zm.012,0a.2.2,0,0,0-.2-.195.192.192,0,0,0-.2.195.2.2,0,0,0,.2.2.2.2,0,0,0,.2-.2Z" transform="translate(-255.274 -250.894)" fill="#fde7d5" fill-rule="evenodd"/>
      </g>
      <g id="Group_114" data-name="Group 114" clip-path="url(#clip-path)">
        <path id="Path_86" data-name="Path 86" d="M256.843,252.322a.2.2,0,1,1-.195-.195.193.193,0,0,1,.195.195Zm.012,0a.2.2,0,1,0-.207.207.2.2,0,0,0,.207-.207Z" transform="translate(-255.194 -250.807)" fill="#fde7d5" fill-rule="evenodd"/>
      </g>
      <g id="Group_115" data-name="Group 115" clip-path="url(#clip-path)">
        <path id="Path_88" data-name="Path 88" d="M256.77,252.242a.2.2,0,1,1-.2-.2.2.2,0,0,1,.2.2Zm.012,0a.21.21,0,0,0-.213-.207.2.2,0,0,0-.207.207.21.21,0,0,0,.207.213.216.216,0,0,0,.213-.213Z" transform="translate(-255.115 -250.727)" fill="#fde6d4" fill-rule="evenodd"/>
      </g>
      <g id="Group_116" data-name="Group 116" clip-path="url(#clip-path)">
        <path id="Path_90" data-name="Path 90" d="M256.69,252.156a.207.207,0,1,1-.207-.207.2.2,0,0,1,.207.207Zm.012,0a.216.216,0,1,0-.219.219.217.217,0,0,0,.219-.219Z" transform="translate(-255.029 -250.641)" fill="#fde6d4" fill-rule="evenodd"/>
      </g>
      <g id="Group_117" data-name="Group 117" clip-path="url(#clip-path)">
        <path id="Path_92" data-name="Path 92" d="M256.609,252.07a.213.213,0,1,1-.213-.213.216.216,0,0,1,.213.213Zm.012,0a.223.223,0,0,0-.225-.219.218.218,0,0,0-.219.219.223.223,0,0,0,.219.225.228.228,0,0,0,.225-.225Z" transform="translate(-254.942 -250.555)" fill="#fde6d3" fill-rule="evenodd"/>
      </g>
      <g id="Group_118" data-name="Group 118" clip-path="url(#clip-path)">
        <path id="Path_94" data-name="Path 94" d="M256.535,251.983a.219.219,0,1,1-.219-.219.218.218,0,0,1,.219.219Zm.012,0a.226.226,0,0,0-.231-.225.221.221,0,0,0-.225.225.226.226,0,0,0,.225.231.231.231,0,0,0,.231-.231Z" transform="translate(-254.862 -250.468)" fill="#fee6d3" fill-rule="evenodd"/>
      </g>
      <g id="Group_119" data-name="Group 119" clip-path="url(#clip-path)">
        <path id="Path_96" data-name="Path 96" d="M256.453,251.9a.225.225,0,1,1-.225-.225.228.228,0,0,1,.225.225Zm.012,0a.237.237,0,0,0-.237-.231.231.231,0,0,0-.231.231.236.236,0,0,0,.231.237.242.242,0,0,0,.237-.237Z" transform="translate(-254.774 -250.388)" fill="#fde5d2" fill-rule="evenodd"/>
      </g>
      <g id="Group_120" data-name="Group 120" clip-path="url(#clip-path)">
        <path id="Path_98" data-name="Path 98" d="M256.375,251.817a.231.231,0,1,1-.231-.231.231.231,0,0,1,.231.231Zm.012,0a.239.239,0,0,0-.243-.237.234.234,0,0,0-.237.237.239.239,0,0,0,.237.244.244.244,0,0,0,.243-.244Z" transform="translate(-254.689 -250.302)" fill="#fde5d1" fill-rule="evenodd"/>
      </g>
      <g id="Group_121" data-name="Group 121" clip-path="url(#clip-path)">
        <path id="Path_100" data-name="Path 100" d="M256.3,251.732a.233.233,0,0,1-.237.237.237.237,0,0,1-.237-.237.242.242,0,0,1,.237-.237.238.238,0,0,1,.237.237Zm.012,0a.249.249,0,0,0-.249-.244.244.244,0,0,0-.243.244.249.249,0,0,0,.243.249.254.254,0,0,0,.249-.249Z" transform="translate(-254.609 -250.216)" fill="#fee5d1" fill-rule="evenodd"/>
      </g>
      <g id="Group_122" data-name="Group 122" clip-path="url(#clip-path)">
        <path id="Path_102" data-name="Path 102" d="M256.221,251.65a.243.243,0,1,1-.243-.244.244.244,0,0,1,.243.244Zm.012,0a.252.252,0,0,0-.256-.249.247.247,0,0,0-.249.249.252.252,0,0,0,.249.256.257.257,0,0,0,.256-.256Z" transform="translate(-254.523 -250.135)" fill="#fde4d0" fill-rule="evenodd"/>
      </g>
      <g id="Group_123" data-name="Group 123" clip-path="url(#clip-path)">
        <path id="Path_104" data-name="Path 104" d="M256.14,251.565a.249.249,0,1,1-.249-.249.247.247,0,0,1,.249.249Zm.012,0a.259.259,0,1,0-.262.262.258.258,0,0,0,.262-.262Z" transform="translate(-254.437 -250.05)" fill="#fde4d0" fill-rule="evenodd"/>
      </g>
      <g id="Group_124" data-name="Group 124" clip-path="url(#clip-path)">
        <path id="Path_106" data-name="Path 106" d="M256.066,251.478a.256.256,0,1,1-.256-.256.257.257,0,0,1,.256.256Zm.012,0a.265.265,0,0,0-.268-.262.26.26,0,0,0-.262.262.265.265,0,0,0,.262.268.27.27,0,0,0,.268-.268Z" transform="translate(-254.356 -249.963)" fill="#fee4cf" fill-rule="evenodd"/>
      </g>
      <g id="Group_125" data-name="Group 125" clip-path="url(#clip-path)">
        <path id="Path_108" data-name="Path 108" d="M255.99,251.4a.262.262,0,1,1-.262-.262.26.26,0,0,1,.262.262Zm.012,0a.271.271,0,1,0-.274.274A.272.272,0,0,0,256,251.4Z" transform="translate(-254.274 -249.882)" fill="#fee4cf" fill-rule="evenodd"/>
      </g>
      <g id="Group_126" data-name="Group 126" clip-path="url(#clip-path)">
        <path id="Path_110" data-name="Path 110" d="M255.9,251.311a.268.268,0,1,1-.268-.268.27.27,0,0,1,.268.268Zm.012,0a.278.278,0,0,0-.28-.274.273.273,0,0,0-.274.274.278.278,0,0,0,.274.28.283.283,0,0,0,.28-.28Z" transform="translate(-254.183 -249.796)" fill="#fee4cf" fill-rule="evenodd"/>
      </g>
      <g id="Group_127" data-name="Group 127" clip-path="url(#clip-path)">
        <path id="Path_112" data-name="Path 112" d="M255.832,251.232a.274.274,0,1,1-.274-.274.273.273,0,0,1,.274.274Zm.012,0a.28.28,0,0,0-.286-.28.275.275,0,0,0-.28.28.281.281,0,0,0,.28.286.286.286,0,0,0,.286-.286Z" transform="translate(-254.104 -249.717)" fill="#fee4cf" fill-rule="evenodd"/>
      </g>
      <g id="Group_128" data-name="Group 128" clip-path="url(#clip-path)">
        <path id="Path_114" data-name="Path 114" d="M255.757,251.145a.28.28,0,1,1-.28-.28.283.283,0,0,1,.28.28Zm.012,0a.291.291,0,0,0-.292-.286.285.285,0,0,0-.286.286.291.291,0,0,0,.286.292.3.3,0,0,0,.292-.292Z" transform="translate(-254.023 -249.63)" fill="#fee3cd" fill-rule="evenodd"/>
      </g>
      <g id="Group_129" data-name="Group 129" clip-path="url(#clip-path)">
        <path id="Path_116" data-name="Path 116" d="M255.677,251.058a.286.286,0,1,1-.286-.286.286.286,0,0,1,.286.286Zm.012,0a.294.294,0,0,0-.3-.292.288.288,0,0,0-.292.292.293.293,0,0,0,.292.3.3.3,0,0,0,.3-.3Z" transform="translate(-253.937 -249.543)" fill="#fee3cd" fill-rule="evenodd"/>
      </g>
      <g id="Group_130" data-name="Group 130" clip-path="url(#clip-path)">
        <path id="Path_118" data-name="Path 118" d="M255.6,250.978a.288.288,0,0,1-.292.292.292.292,0,0,1-.292-.292.3.3,0,0,1,.292-.292.293.293,0,0,1,.292.292Zm.012,0a.3.3,0,0,0-.3-.3.3.3,0,0,0-.3.3.3.3,0,0,0,.3.3.309.309,0,0,0,.3-.3Z" transform="translate(-253.851 -249.463)" fill="#fee2cc" fill-rule="evenodd"/>
      </g>
      <g id="Group_131" data-name="Group 131" clip-path="url(#clip-path)">
        <path id="Path_120" data-name="Path 120" d="M255.521,250.892a.3.3,0,1,1-.3-.3.3.3,0,0,1,.3.3Zm.012,0a.307.307,0,0,0-.311-.3.3.3,0,0,0-.3.3.306.306,0,0,0,.3.31.312.312,0,0,0,.311-.31Z" transform="translate(-253.769 -249.377)" fill="#fee2cb" fill-rule="evenodd"/>
      </g>
      <g id="Group_132" data-name="Group 132" clip-path="url(#clip-path)">
        <path id="Path_122" data-name="Path 122" d="M255.436,250.811a.3.3,0,0,1-.3.3.3.3,0,0,1-.3-.3.309.309,0,0,1,.3-.3.3.3,0,0,1,.3.3Zm.012,0a.317.317,0,0,0-.316-.31.312.312,0,0,0-.311.31.317.317,0,0,0,.311.316.322.322,0,0,0,.316-.316Z" transform="translate(-253.678 -249.296)" fill="#fce2cc" fill-rule="evenodd"/>
      </g>
      <g id="Group_133" data-name="Group 133" clip-path="url(#clip-path)">
        <path id="Path_124" data-name="Path 124" d="M255.363,250.725a.311.311,0,1,1-.311-.31.312.312,0,0,1,.311.31Zm.012,0a.319.319,0,0,0-.322-.316.314.314,0,0,0-.316.316.32.32,0,0,0,.316.323.324.324,0,0,0,.322-.323Z" transform="translate(-253.598 -249.21)" fill="#fde2ca" fill-rule="evenodd"/>
      </g>
      <g id="Group_134" data-name="Group 134" clip-path="url(#clip-path)">
        <path id="Path_126" data-name="Path 126" d="M255.282,250.64a.316.316,0,1,1-.316-.316.314.314,0,0,1,.316.316Zm.012,0a.326.326,0,1,0-.328.328.326.326,0,0,0,.328-.328Z" transform="translate(-253.512 -249.124)" fill="#fce1cb" fill-rule="evenodd"/>
      </g>
      <g id="Group_135" data-name="Group 135" clip-path="url(#clip-path)">
        <path id="Path_128" data-name="Path 128" d="M255.2,250.559a.322.322,0,1,1-.322-.323.324.324,0,0,1,.322.323Zm.013,0a.332.332,0,0,0-.335-.329.327.327,0,0,0-.329.329.333.333,0,0,0,.329.335.338.338,0,0,0,.335-.335Z" transform="translate(-253.425 -249.043)" fill="#fde1c9" fill-rule="evenodd"/>
      </g>
      <g id="Group_136" data-name="Group 136" clip-path="url(#clip-path)">
        <path id="Path_130" data-name="Path 130" d="M255.127,250.472a.329.329,0,1,1-.328-.329.327.327,0,0,1,.328.329Zm.012,0a.335.335,0,0,0-.341-.335.33.33,0,0,0-.335.335.335.335,0,0,0,.335.341.34.34,0,0,0,.341-.341Z" transform="translate(-253.345 -248.957)" fill="#fde1c9" fill-rule="evenodd"/>
      </g>
      <g id="Group_137" data-name="Group 137" clip-path="url(#clip-path)">
        <path id="Path_132" data-name="Path 132" d="M255.053,250.386a.335.335,0,1,1-.335-.335.338.338,0,0,1,.335.335Zm.012,0a.345.345,0,0,0-.347-.341.34.34,0,0,0-.341.341.346.346,0,0,0,.341.347.351.351,0,0,0,.347-.347Z" transform="translate(-253.264 -248.871)" fill="#fce0c8" fill-rule="evenodd"/>
      </g>
      <g id="Group_138" data-name="Group 138" clip-path="url(#clip-path)">
        <path id="Path_134" data-name="Path 134" d="M254.967,250.306a.341.341,0,1,1-.341-.341.34.34,0,0,1,.341.341Zm.012,0a.348.348,0,0,0-.353-.347.347.347,0,1,0,0,.694.348.348,0,0,0,.353-.347Z" transform="translate(-253.172 -248.791)" fill="#fce0c7" fill-rule="evenodd"/>
      </g>
      <g id="Group_139" data-name="Group 139" clip-path="url(#clip-path)">
        <path id="Path_136" data-name="Path 136" d="M254.893,250.22a.343.343,0,0,1-.347.347.347.347,0,0,1-.347-.347.351.351,0,0,1,.347-.347.346.346,0,0,1,.347.347Zm.012,0a.358.358,0,0,0-.359-.353.353.353,0,1,0,0,.706.358.358,0,0,0,.359-.353Z" transform="translate(-253.092 -248.705)" fill="#fce0c7" fill-rule="evenodd"/>
      </g>
      <g id="Group_140" data-name="Group 140" clip-path="url(#clip-path)">
        <path id="Path_138" data-name="Path 138" d="M254.819,250.133a.353.353,0,1,1-.353-.353.353.353,0,0,1,.353.353Zm.012,0a.361.361,0,0,0-.365-.359.359.359,0,0,0,0,.718.361.361,0,0,0,.365-.359Z" transform="translate(-253.012 -248.618)" fill="#fcdfc6" fill-rule="evenodd"/>
      </g>
      <g id="Group_141" data-name="Group 141" clip-path="url(#clip-path)">
        <path id="Path_140" data-name="Path 140" d="M254.738,250.053a.355.355,0,0,1-.359.359.359.359,0,0,1-.359-.359.364.364,0,0,1,.359-.359.36.36,0,0,1,.359.359Zm.006,0a.365.365,0,1,0-.365.365.366.366,0,0,0,.365-.365Z" transform="translate(-252.925 -248.538)" fill="#fcdfc6" fill-rule="evenodd"/>
      </g>
      <g id="Group_142" data-name="Group 142" clip-path="url(#clip-path)">
        <path id="Path_142" data-name="Path 142" d="M254.658,249.966a.365.365,0,1,1-.365-.365.366.366,0,0,1,.365.365Zm.006,0a.371.371,0,1,0-.371.371.369.369,0,0,0,.371-.371Z" transform="translate(-252.839 -248.451)" fill="#fcdfc5" fill-rule="evenodd"/>
      </g>
      <g id="Group_143" data-name="Group 143" clip-path="url(#clip-path)">
        <path id="Path_144" data-name="Path 144" d="M254.584,249.886a.371.371,0,1,1-.371-.371.369.369,0,0,1,.371.371Zm.006,0a.375.375,0,0,0-.377-.377.379.379,0,0,0-.377.377.375.375,0,0,0,.377.377.371.371,0,0,0,.377-.377Z" transform="translate(-252.759 -248.371)" fill="#fcdec5" fill-rule="evenodd"/>
      </g>
      <g id="Group_144" data-name="Group 144" clip-path="url(#clip-path)">
        <path id="Path_146" data-name="Path 146" d="M254.5,249.8a.377.377,0,1,1-.377-.377.379.379,0,0,1,.377.377Zm.006,0a.383.383,0,1,0-.383.383.382.382,0,0,0,.383-.383Z" transform="translate(-252.671 -248.285)" fill="#fcdec4" fill-rule="evenodd"/>
      </g>
      <g id="Group_145" data-name="Group 145" clip-path="url(#clip-path)">
        <path id="Path_148" data-name="Path 148" d="M254.424,249.715a.383.383,0,1,1-.383-.383.382.382,0,0,1,.383.383Zm.006,0a.388.388,0,0,0-.389-.39.393.393,0,0,0-.39.39.388.388,0,0,0,.39.389.384.384,0,0,0,.389-.389Z" transform="translate(-252.587 -248.199)" fill="#fcdec4" fill-rule="evenodd"/>
      </g>
      <g id="Group_146" data-name="Group 146" clip-path="url(#clip-path)">
        <path id="Path_150" data-name="Path 150" d="M254.35,249.634a.39.39,0,1,1-.389-.39.392.392,0,0,1,.389.39Zm.006,0a.4.4,0,1,0-.4.4.394.394,0,0,0,.4-.4Z" transform="translate(-252.506 -248.119)" fill="#fcdcc3" fill-rule="evenodd"/>
      </g>
      <g id="Group_147" data-name="Group 147" clip-path="url(#clip-path)">
        <path id="Path_152" data-name="Path 152" d="M254.269,249.548a.4.4,0,1,1-.4-.4.394.394,0,0,1,.4.4Zm.006,0a.4.4,0,1,0-.4.4.4.4,0,0,0,.4-.4Z" transform="translate(-252.42 -248.032)" fill="#fcdcc2" fill-rule="evenodd"/>
      </g>
      <g id="Group_148" data-name="Group 148" clip-path="url(#clip-path)">
        <path id="Path_154" data-name="Path 154" d="M254.189,249.467a.4.4,0,1,1-.4-.4.405.405,0,0,1,.4.4Zm.006,0a.408.408,0,1,0-.408.407.408.408,0,0,0,.408-.407Z" transform="translate(-252.333 -247.951)" fill="#fcdcc2" fill-rule="evenodd"/>
      </g>
      <g id="Group_149" data-name="Group 149" clip-path="url(#clip-path)">
        <path id="Path_156" data-name="Path 156" d="M254.115,249.38a.408.408,0,1,1-.408-.408.408.408,0,0,1,.408.408Zm.006,0a.414.414,0,1,0-.414.414.41.41,0,0,0,.414-.414Z" transform="translate(-252.253 -247.865)" fill="#fcdcc1" fill-rule="evenodd"/>
      </g>
      <g id="Group_150" data-name="Group 150" clip-path="url(#clip-path)">
        <path id="Path_158" data-name="Path 158" d="M254.034,249.294a.414.414,0,0,1-.827,0,.414.414,0,1,1,.827,0Zm.006,0a.42.42,0,1,0-.42.42.421.421,0,0,0,.42-.42Z" transform="translate(-252.166 -247.779)" fill="#fcdcc1" fill-rule="evenodd"/>
      </g>
      <g id="Group_151" data-name="Group 151" clip-path="url(#clip-path)">
        <path id="Path_160" data-name="Path 160" d="M253.955,249.214a.42.42,0,1,1-.42-.42.421.421,0,0,1,.42.42Zm.006,0a.426.426,0,1,0-.426.426.423.423,0,0,0,.426-.426Z" transform="translate(-252.081 -247.699)" fill="#fcdbc1" fill-rule="evenodd"/>
      </g>
      <g id="Group_152" data-name="Group 152" clip-path="url(#clip-path)">
        <path id="Path_162" data-name="Path 162" d="M253.881,249.128a.426.426,0,1,1-.426-.426.424.424,0,0,1,.426.426Zm.006,0a.432.432,0,1,0-.432.432.43.43,0,0,0,.432-.432Z" transform="translate(-252.001 -247.613)" fill="#fcdbc0" fill-rule="evenodd"/>
      </g>
      <g id="Group_153" data-name="Group 153" clip-path="url(#clip-path)">
        <path id="Path_164" data-name="Path 164" d="M253.807,249.042a.432.432,0,1,1-.432-.432.434.434,0,0,1,.432.432Zm.006,0a.438.438,0,1,0-.438.438.436.436,0,0,0,.438-.438Z" transform="translate(-251.921 -247.527)" fill="#fcdbc0" fill-rule="evenodd"/>
      </g>
      <g id="Group_154" data-name="Group 154" clip-path="url(#clip-path)">
        <path id="Path_166" data-name="Path 166" d="M253.72,248.961a.438.438,0,1,1-.438-.438.436.436,0,0,1,.438.438Zm.006,0a.445.445,0,1,0-.445.444.443.443,0,0,0,.445-.444Z" transform="translate(-251.827 -247.446)" fill="#fcdbbf" fill-rule="evenodd"/>
      </g>
      <g id="Group_155" data-name="Group 155" clip-path="url(#clip-path)">
        <path id="Path_168" data-name="Path 168" d="M253.646,248.874a.445.445,0,1,1-.445-.444.447.447,0,0,1,.445.444Zm.006,0a.45.45,0,1,0-.45.45.449.449,0,0,0,.45-.45Z" transform="translate(-251.747 -247.359)" fill="#fcd9be" fill-rule="evenodd"/>
      </g>
      <g id="Group_156" data-name="Group 156" clip-path="url(#clip-path)">
        <path id="Path_170" data-name="Path 170" d="M253.571,248.789a.45.45,0,1,1-.45-.45.449.449,0,0,1,.45.45Zm.006,0a.456.456,0,1,0-.456.457.452.452,0,0,0,.456-.457Z" transform="translate(-251.667 -247.273)" fill="#fcdabe" fill-rule="evenodd"/>
      </g>
      <g id="Group_157" data-name="Group 157" clip-path="url(#clip-path)">
        <path id="Path_172" data-name="Path 172" d="M253.491,248.7a.456.456,0,1,1-.456-.457.46.46,0,0,1,.456.457Zm.007,0a.463.463,0,1,0-.463.462.463.463,0,0,0,.463-.462Z" transform="translate(-251.58 -247.188)" fill="#fcd8bc" fill-rule="evenodd"/>
      </g>
      <g id="Group_158" data-name="Group 158" clip-path="url(#clip-path)">
        <path id="Path_174" data-name="Path 174" d="M253.412,248.623a.463.463,0,1,1-.463-.463.462.462,0,0,1,.463.463Zm.006,0a.469.469,0,1,0-.469.469.465.465,0,0,0,.469-.469Z" transform="translate(-251.495 -247.107)" fill="#fcd8bb" fill-rule="evenodd"/>
      </g>
      <g id="Group_159" data-name="Group 159" clip-path="url(#clip-path)">
        <path id="Path_176" data-name="Path 176" d="M253.337,248.536a.469.469,0,0,1-.937,0,.469.469,0,0,1,.937,0Zm.006,0a.474.474,0,1,0-.474.475.475.475,0,0,0,.474-.475Z" transform="translate(-251.414 -247.021)" fill="#fcd8bb" fill-rule="evenodd"/>
      </g>
      <g id="Group_160" data-name="Group 160" clip-path="url(#clip-path)">
        <path id="Path_178" data-name="Path 178" d="M253.257,248.456a.474.474,0,1,1-.474-.475.475.475,0,0,1,.474.475Zm.006,0a.481.481,0,1,0-.481.481.478.478,0,0,0,.481-.481Z" transform="translate(-251.329 -246.941)" fill="#fcd7ba" fill-rule="evenodd"/>
      </g>
      <g id="Group_161" data-name="Group 161" clip-path="url(#clip-path)">
        <path id="Path_180" data-name="Path 180" d="M253.177,248.369a.481.481,0,1,1-.961,0,.481.481,0,1,1,.961,0Zm.006,0a.487.487,0,1,0-.487.487.488.488,0,0,0,.487-.487Z" transform="translate(-251.242 -246.854)" fill="#fcd7b9" fill-rule="evenodd"/>
      </g>
      <g id="Group_162" data-name="Group 162" clip-path="url(#clip-path)">
        <path id="Path_182" data-name="Path 182" d="M253.1,248.282a.487.487,0,1,1-.487-.487.488.488,0,0,1,.487.487Zm.006,0a.493.493,0,1,0-.493.493.491.491,0,0,0,.493-.493Z" transform="translate(-251.161 -246.767)" fill="#fed7b8" fill-rule="evenodd"/>
      </g>
      <g id="Group_163" data-name="Group 163" clip-path="url(#clip-path)">
        <path id="Path_184" data-name="Path 184" d="M253.021,248.2a.493.493,0,1,1-.493-.493.491.491,0,0,1,.493.493Zm.006,0a.5.5,0,1,0-.5.5.5.5,0,0,0,.5-.5Z" transform="translate(-251.074 -246.687)" fill="#fed7b8" fill-rule="evenodd"/>
      </g>
      <g id="Group_164" data-name="Group 164" clip-path="url(#clip-path)">
        <path id="Path_186" data-name="Path 186" d="M252.942,248.117a.5.5,0,1,1-.5-.5.5.5,0,0,1,.5.5Zm.006,0a.505.505,0,1,0-.505.505.5.5,0,0,0,.505-.505Z" transform="translate(-250.989 -246.602)" fill="#fed7b7" fill-rule="evenodd"/>
      </g>
      <g id="Group_165" data-name="Group 165" clip-path="url(#clip-path)">
        <path id="Path_188" data-name="Path 188" d="M252.868,248.03a.505.505,0,1,1-.505-.505.5.5,0,0,1,.505.505Zm.006,0a.511.511,0,1,0-.511.511.506.506,0,0,0,.511-.511Z" transform="translate(-250.909 -246.515)" fill="#fed6b7" fill-rule="evenodd"/>
      </g>
      <g id="Group_166" data-name="Group 166" clip-path="url(#clip-path)">
        <path id="Path_190" data-name="Path 190" d="M252.794,247.95a.511.511,0,1,1-.511-.511.514.514,0,0,1,.511.511Zm.006,0a.517.517,0,1,0-.517.517.517.517,0,0,0,.517-.517Z" transform="translate(-250.829 -246.435)" fill="#fed6b5" fill-rule="evenodd"/>
      </g>
      <g id="Group_167" data-name="Group 167" clip-path="url(#clip-path)">
        <path id="Path_192" data-name="Path 192" d="M252.707,247.864a.517.517,0,1,1-.517-.517.517.517,0,0,1,.517.517Zm.006,0a.524.524,0,1,0-.523.524.519.519,0,0,0,.523-.524Z" transform="translate(-250.736 -246.348)" fill="#fcd5b6" fill-rule="evenodd"/>
      </g>
      <g id="Group_168" data-name="Group 168" clip-path="url(#clip-path)">
        <path id="Path_194" data-name="Path 194" d="M252.633,247.783a.524.524,0,0,1-1.047,0,.524.524,0,1,1,1.047,0Zm.006,0a.529.529,0,1,0-.529.529.529.529,0,0,0,.529-.529Z" transform="translate(-250.655 -246.268)" fill="#fcd5b4" fill-rule="evenodd"/>
      </g>
      <g id="Group_169" data-name="Group 169" clip-path="url(#clip-path)">
        <path id="Path_196" data-name="Path 196" d="M252.558,247.7a.529.529,0,1,1-.529-.529.53.53,0,0,1,.529.529Zm.006,0a.535.535,0,1,0-.536.536.533.533,0,0,0,.536-.536Z" transform="translate(-250.574 -246.181)" fill="#fcd4b3" fill-rule="evenodd"/>
      </g>
      <g id="Group_170" data-name="Group 170" clip-path="url(#clip-path)">
        <path id="Path_198" data-name="Path 198" d="M252.479,247.611a.535.535,0,1,1-1.071,0,.535.535,0,1,1,1.071,0Zm.006,0a.542.542,0,1,0-.542.541.543.543,0,0,0,.542-.541Z" transform="translate(-250.489 -246.096)" fill="#fcd4b3" fill-rule="evenodd"/>
      </g>
      <g id="Group_171" data-name="Group 171" clip-path="url(#clip-path)">
        <path id="Path_200" data-name="Path 200" d="M252.4,247.531a.542.542,0,1,1-.542-.542.543.543,0,0,1,.542.542Zm.006,0a.548.548,0,1,0-.548.548.545.545,0,0,0,.548-.548Z" transform="translate(-250.403 -246.015)" fill="#fcd4b3" fill-rule="evenodd"/>
      </g>
      <g id="Group_172" data-name="Group 172" clip-path="url(#clip-path)">
        <path id="Path_202" data-name="Path 202" d="M252.318,247.444a.548.548,0,1,1-.548-.548.545.545,0,0,1,.548.548Zm.006,0a.554.554,0,1,0-.553.554.551.551,0,0,0,.553-.554Z" transform="translate(-250.317 -245.929)" fill="#fcd3b2" fill-rule="evenodd"/>
      </g>
      <g id="Group_173" data-name="Group 173" clip-path="url(#clip-path)">
        <path id="Path_204" data-name="Path 204" d="M252.238,247.364a.554.554,0,1,1-.553-.554.556.556,0,0,1,.553.554Zm.006,0a.56.56,0,1,0-.56.56.558.558,0,0,0,.56-.56Z" transform="translate(-250.23 -245.849)" fill="#fcd3b0" fill-rule="evenodd"/>
      </g>
      <g id="Group_174" data-name="Group 174" clip-path="url(#clip-path)">
        <path id="Path_206" data-name="Path 206" d="M252.164,247.278a.56.56,0,1,1-.56-.56.558.558,0,0,1,.56.56Zm.006,0a.566.566,0,1,0-.566.566.565.565,0,0,0,.566-.566Z" transform="translate(-250.15 -245.763)" fill="#fcd2b0" fill-rule="evenodd"/>
      </g>
      <g id="Group_175" data-name="Group 175" clip-path="url(#clip-path)">
        <path id="Path_208" data-name="Path 208" d="M252.083,247.191a.566.566,0,1,1-.566-.566.569.569,0,0,1,.566.566Zm.006,0a.572.572,0,1,0-.572.572.571.571,0,0,0,.572-.572Z" transform="translate(-250.063 -245.676)" fill="#fcd2b0" fill-rule="evenodd"/>
      </g>
      <g id="Group_176" data-name="Group 176" clip-path="url(#clip-path)">
        <path id="Path_210" data-name="Path 210" d="M252,247.111a.572.572,0,1,1-.572-.572.571.571,0,0,1,.572.572Zm.006,0a.578.578,0,1,0-.578.578.574.574,0,0,0,.578-.578Z" transform="translate(-249.978 -245.596)" fill="#fcd2ae" fill-rule="evenodd"/>
      </g>
      <g id="Group_177" data-name="Group 177" clip-path="url(#clip-path)">
        <path id="Path_212" data-name="Path 212" d="M251.929,247.025a.578.578,0,1,1-.578-.578.582.582,0,0,1,.578.578Zm.006,0a.584.584,0,1,0-.584.584.585.585,0,0,0,.584-.584Z" transform="translate(-249.897 -245.51)" fill="#fcd2ae" fill-rule="evenodd"/>
      </g>
      <g id="Group_178" data-name="Group 178" clip-path="url(#clip-path)">
        <path id="Path_214" data-name="Path 214" d="M251.855,246.938a.584.584,0,1,1-.584-.584.584.584,0,0,1,.584.584Zm.006,0a.59.59,0,1,0-.59.59.587.587,0,0,0,.59-.59Z" transform="translate(-249.817 -245.423)" fill="#fcd2ad" fill-rule="evenodd"/>
      </g>
      <g id="Group_179" data-name="Group 179" clip-path="url(#clip-path)">
        <path id="Path_216" data-name="Path 216" d="M251.769,246.858a.59.59,0,1,1-1.18,0,.59.59,0,1,1,1.18,0Zm.007,0a.6.6,0,1,0-.6.6.6.6,0,0,0,.6-.6Z" transform="translate(-249.725 -245.343)" fill="#fcd0ad" fill-rule="evenodd"/>
      </g>
      <g id="Group_180" data-name="Group 180" clip-path="url(#clip-path)">
        <path id="Path_218" data-name="Path 218" d="M251.7,246.772a.6.6,0,1,1-.6-.6.6.6,0,0,1,.6.6Zm.006,0a.6.6,0,1,0-.6.6.6.6,0,0,0,.6-.6Z" transform="translate(-249.644 -245.257)" fill="#fcd0ab" fill-rule="evenodd"/>
      </g>
      <g id="Group_181" data-name="Group 181" clip-path="url(#clip-path)">
        <path id="Path_220" data-name="Path 220" d="M251.62,246.691a.6.6,0,0,1-1.205,0,.6.6,0,0,1,1.205,0Zm.006,0a.608.608,0,1,0-.608.608.606.606,0,0,0,.608-.608Z" transform="translate(-249.563 -245.176)" fill="#fcd1ab" fill-rule="evenodd"/>
      </g>
      <g id="Group_182" data-name="Group 182" clip-path="url(#clip-path)">
        <path id="Path_222" data-name="Path 222" d="M251.541,246.606a.608.608,0,1,1-.608-.608.61.61,0,0,1,.608.608Zm.007,0a.615.615,0,1,0-.615.615.613.613,0,0,0,.615-.615Z" transform="translate(-249.478 -245.09)" fill="#fccfaa" fill-rule="evenodd"/>
      </g>
      <g id="Group_183" data-name="Group 183" clip-path="url(#clip-path)">
        <path id="Path_224" data-name="Path 224" d="M251.461,246.519a.615.615,0,1,1-.615-.615.613.613,0,0,1,.615.615Zm.006,0a.621.621,0,1,0-.621.621.62.62,0,0,0,.621-.621Z" transform="translate(-249.392 -245.004)" fill="#fccfaa" fill-rule="evenodd"/>
      </g>
      <g id="Group_184" data-name="Group 184" clip-path="url(#clip-path)">
        <path id="Path_226" data-name="Path 226" d="M251.385,246.439a.621.621,0,1,1-.621-.621.624.624,0,0,1,.621.621Zm.006,0a.627.627,0,1,0-.627.627.626.626,0,0,0,.627-.627Z" transform="translate(-249.311 -244.923)" fill="#fbcea9" fill-rule="evenodd"/>
      </g>
      <g id="Group_185" data-name="Group 185" clip-path="url(#clip-path)">
        <path id="Path_228" data-name="Path 228" d="M251.306,246.352a.627.627,0,1,1-.627-.627.626.626,0,0,1,.627.627Zm.006,0a.633.633,0,1,0-.633.633.628.628,0,0,0,.633-.633Z" transform="translate(-249.225 -244.837)" fill="#fccea7" fill-rule="evenodd"/>
      </g>
      <g id="Group_186" data-name="Group 186" clip-path="url(#clip-path)">
        <path id="Path_230" data-name="Path 230" d="M251.226,246.266a.633.633,0,1,1-.633-.633.636.636,0,0,1,.633.633Zm.006,0a.639.639,0,1,0-.639.639.639.639,0,0,0,.639-.639Z" transform="translate(-249.139 -244.751)" fill="#fbcea6" fill-rule="evenodd"/>
      </g>
      <g id="Group_187" data-name="Group 187" clip-path="url(#clip-path)">
        <path id="Path_232" data-name="Path 232" d="M251.15,246.186a.639.639,0,1,1-.639-.639.639.639,0,0,1,.639.639Zm.006,0a.645.645,0,1,0-.645.645.641.641,0,0,0,.645-.645Z" transform="translate(-249.057 -244.671)" fill="#fbcea6" fill-rule="evenodd"/>
      </g>
      <g id="Group_188" data-name="Group 188" clip-path="url(#clip-path)">
        <path id="Path_234" data-name="Path 234" d="M251.072,246.1a.645.645,0,0,1-1.29,0,.645.645,0,0,1,1.29,0Zm.006,0a.651.651,0,1,0-.651.651.652.652,0,0,0,.651-.651Z" transform="translate(-248.973 -244.585)" fill="#fbcda6" fill-rule="evenodd"/>
      </g>
      <g id="Group_189" data-name="Group 189" clip-path="url(#clip-path)">
        <path id="Path_236" data-name="Path 236" d="M250.991,246.02a.651.651,0,1,1-.651-.651.652.652,0,0,1,.651.651Zm.006,0a.657.657,0,1,0-.657.657.654.654,0,0,0,.657-.657Z" transform="translate(-248.886 -244.505)" fill="#fdcda5" fill-rule="evenodd"/>
      </g>
      <g id="Group_190" data-name="Group 190" clip-path="url(#clip-path)">
        <path id="Path_238" data-name="Path 238" d="M250.917,245.933a.657.657,0,0,1-1.315,0,.657.657,0,0,1,1.315,0Zm.006,0a.663.663,0,1,0-.663.663.665.665,0,0,0,.663-.663Z" transform="translate(-248.805 -244.418)" fill="#fdcda3" fill-rule="evenodd"/>
      </g>
      <g id="Group_191" data-name="Group 191" clip-path="url(#clip-path)">
        <path id="Path_240" data-name="Path 240" d="M250.842,245.846a.663.663,0,1,1-.663-.663.665.665,0,0,1,.663.663Zm.006,0a.669.669,0,1,0-.669.669.667.667,0,0,0,.669-.669Z" transform="translate(-248.725 -244.331)" fill="#fdcca4" fill-rule="evenodd"/>
      </g>
      <g id="Group_192" data-name="Group 192" clip-path="url(#clip-path)">
        <path id="Path_242" data-name="Path 242" d="M250.756,245.761a.669.669,0,1,1-.669-.669.667.667,0,0,1,.669.669Zm.006,0a.676.676,0,1,0-.676.675.674.674,0,0,0,.676-.675Z" transform="translate(-248.633 -244.246)" fill="#fdcca3" fill-rule="evenodd"/>
      </g>
      <g id="Group_193" data-name="Group 193" clip-path="url(#clip-path)">
        <path id="Path_244" data-name="Path 244" d="M250.681,245.681a.676.676,0,1,1-.676-.676.678.678,0,0,1,.676.676Zm.006,0a.682.682,0,1,0-.682.682.681.681,0,0,0,.682-.682Z" transform="translate(-248.552 -244.165)" fill="#fdcca2" fill-rule="evenodd"/>
      </g>
      <g id="Group_194" data-name="Group 194" clip-path="url(#clip-path)">
        <path id="Path_246" data-name="Path 246" d="M250.608,245.595a.682.682,0,1,1-.682-.682.681.681,0,0,1,.682.682Zm.006,0a.688.688,0,1,0-.688.687.687.687,0,0,0,.688-.687Z" transform="translate(-248.472 -244.08)" fill="#fbcba1" fill-rule="evenodd"/>
      </g>
      <g id="Group_195" data-name="Group 195" clip-path="url(#clip-path)">
        <path id="Path_248" data-name="Path 248" d="M250.528,245.508a.688.688,0,1,1-.688-.688.691.691,0,0,1,.688.688Zm.006,0a.694.694,0,1,0-.694.694.694.694,0,0,0,.694-.694Z" transform="translate(-248.387 -243.993)" fill="#fbcba1" fill-rule="evenodd"/>
      </g>
      <g id="Group_196" data-name="Group 196" clip-path="url(#clip-path)">
        <path id="Path_250" data-name="Path 250" d="M250.448,245.428a.694.694,0,1,1-.694-.694.693.693,0,0,1,.694.694Zm.006,0a.7.7,0,1,0-.7.7.7.7,0,0,0,.7-.7Z" transform="translate(-248.3 -243.913)" fill="#fbcaa0" fill-rule="evenodd"/>
      </g>
      <g id="Group_197" data-name="Group 197" clip-path="url(#clip-path)">
        <path id="Path_252" data-name="Path 252" d="M250.373,245.341a.7.7,0,0,1-1.4,0,.7.7,0,0,1,1.4,0Zm.006,0a.706.706,0,1,0-.706.706.706.706,0,0,0,.706-.706Z" transform="translate(-248.22 -243.826)" fill="#fbca9f" fill-rule="evenodd"/>
      </g>
      <g id="Group_198" data-name="Group 198" clip-path="url(#clip-path)">
        <path id="Path_254" data-name="Path 254" d="M250.293,245.261a.706.706,0,1,1-.706-.706.706.706,0,0,1,.706.706Zm.007,0a.712.712,0,1,0-.712.712.709.709,0,0,0,.712-.712Z" transform="translate(-248.133 -243.746)" fill="#fbc99e" fill-rule="evenodd"/>
      </g>
      <g id="Group_199" data-name="Group 199" clip-path="url(#clip-path)">
        <path id="Path_256" data-name="Path 256" d="M250.212,245.174a.712.712,0,0,1-1.424,0,.712.712,0,0,1,1.424,0Zm.006,0a.718.718,0,1,0-.718.718.72.72,0,0,0,.718-.718Z" transform="translate(-248.046 -243.659)" fill="#fbc99e" fill-rule="evenodd"/>
      </g>
      <g id="Group_200" data-name="Group 200" clip-path="url(#clip-path)">
        <path id="Path_258" data-name="Path 258" d="M250.137,245.089a.718.718,0,1,1-.718-.718.72.72,0,0,1,.718.718Zm.006,0a.724.724,0,1,0-.724.724.722.722,0,0,0,.724-.724Z" transform="translate(-247.965 -243.574)" fill="#fbc99d" fill-rule="evenodd"/>
      </g>
      <g id="Group_201" data-name="Group 201" clip-path="url(#clip-path)">
        <path id="Path_260" data-name="Path 260" d="M250.059,245.008a.724.724,0,1,1-.724-.724.722.722,0,0,1,.724.724Zm.006,0a.73.73,0,1,0-.73.73.728.728,0,0,0,.73-.73Z" transform="translate(-247.881 -243.493)" fill="#fbc89c" fill-rule="evenodd"/>
      </g>
      <g id="Group_202" data-name="Group 202" clip-path="url(#clip-path)">
        <path id="Path_262" data-name="Path 262" d="M249.979,244.922a.73.73,0,1,1-.73-.73.732.732,0,0,1,.73.73Zm.006,0a.736.736,0,1,0-.736.736.735.735,0,0,0,.736-.736Z" transform="translate(-247.794 -243.407)" fill="#fbc89b" fill-rule="evenodd"/>
      </g>
      <g id="Group_203" data-name="Group 203" clip-path="url(#clip-path)">
        <path id="Path_264" data-name="Path 264" d="M249.9,244.836a.736.736,0,1,1-.736-.736.735.735,0,0,1,.736.736Zm.006,0a.742.742,0,1,0-.742.742.742.742,0,0,0,.742-.742Z" transform="translate(-247.714 -243.32)" fill="#fbc79b" fill-rule="evenodd"/>
      </g>
      <g id="Group_204" data-name="Group 204" clip-path="url(#clip-path)">
        <path id="Path_266" data-name="Path 266" d="M249.824,244.755a.742.742,0,1,1-.742-.743.745.745,0,0,1,.742.743Zm.006,0a.748.748,0,1,0-.748.748.748.748,0,0,0,.748-.748Z" transform="translate(-247.627 -243.24)" fill="#fbc79a" fill-rule="evenodd"/>
      </g>
      <g id="Group_205" data-name="Group 205" clip-path="url(#clip-path)">
        <path id="Path_268" data-name="Path 268" d="M249.742,244.669a.748.748,0,1,1-.748-.748.748.748,0,0,1,.748.748Zm.006,0a.755.755,0,1,0-.755.755.751.751,0,0,0,.755-.755Z" transform="translate(-247.54 -243.154)" fill="#fbc798" fill-rule="evenodd"/>
      </g>
      <g id="Group_206" data-name="Group 206" clip-path="url(#clip-path)">
        <path id="Path_270" data-name="Path 270" d="M249.668,244.583a.755.755,0,1,1-.755-.755.759.759,0,0,1,.755.755Zm.006,0a.761.761,0,1,0-.761.761.761.761,0,0,0,.761-.761Z" transform="translate(-247.46 -243.068)" fill="#fbc698" fill-rule="evenodd"/>
      </g>
      <g id="Group_207" data-name="Group 207" clip-path="url(#clip-path)">
        <path id="Path_272" data-name="Path 272" d="M249.6,244.5a.761.761,0,1,1-.761-.761.761.761,0,0,1,.761.761Zm.006,0a.767.767,0,1,0-.767.767.764.764,0,0,0,.767-.767Z" transform="translate(-247.381 -242.988)" fill="#fbc698" fill-rule="evenodd"/>
      </g>
      <g id="Group_208" data-name="Group 208" clip-path="url(#clip-path)">
        <path id="Path_274" data-name="Path 274" d="M249.51,244.416a.767.767,0,1,1-.767-.767.763.763,0,0,1,.767.767Zm.006,0a.773.773,0,1,0-.773.773.774.774,0,0,0,.773-.773Z" transform="translate(-247.289 -242.901)" fill="#fcc597" fill-rule="evenodd"/>
      </g>
      <g id="Group_209" data-name="Group 209" clip-path="url(#clip-path)">
        <path id="Path_276" data-name="Path 276" d="M249.436,244.336a.773.773,0,1,1-.773-.773.774.774,0,0,1,.773.773Zm.006,0a.779.779,0,1,0-.779.779.776.776,0,0,0,.779-.779Z" transform="translate(-247.209 -242.821)" fill="#fbc596" fill-rule="evenodd"/>
      </g>
      <g id="Group_210" data-name="Group 210" clip-path="url(#clip-path)">
        <path id="Path_278" data-name="Path 278" d="M249.355,244.25a.779.779,0,1,1-.779-.779.776.776,0,0,1,.779.779Zm.006,0a.785.785,0,1,0-.785.785.783.783,0,0,0,.785-.785Z" transform="translate(-247.122 -242.735)" fill="#fcc495" fill-rule="evenodd"/>
      </g>
      <g id="Group_211" data-name="Group 211" clip-path="url(#clip-path)">
        <path id="Path_280" data-name="Path 280" d="M249.273,244.163a.785.785,0,1,1-.785-.785.787.787,0,0,1,.785.785Zm.007,0a.791.791,0,1,0-.791.791.79.79,0,0,0,.791-.791Z" transform="translate(-247.034 -242.648)" fill="#fcc494" fill-rule="evenodd"/>
      </g>
      <g id="Group_212" data-name="Group 212" clip-path="url(#clip-path)">
        <path id="Path_282" data-name="Path 282" d="M249.2,244.082a.791.791,0,1,1-.791-.791.79.79,0,0,1,.791.791Zm.006,0a.8.8,0,1,0-.8.8.8.8,0,0,0,.8-.8Z" transform="translate(-246.954 -242.567)" fill="#fcc393" fill-rule="evenodd"/>
      </g>
      <g id="Group_213" data-name="Group 213" clip-path="url(#clip-path)">
        <path id="Path_284" data-name="Path 284" d="M249.12,244a.8.8,0,1,1-.8-.8.8.8,0,0,1,.8.8Zm.006,0a.8.8,0,1,0-.8.8.8.8,0,0,0,.8-.8Z" transform="translate(-246.869 -242.482)" fill="#fcc393" fill-rule="evenodd"/>
      </g>
      <g id="Group_214" data-name="Group 214" clip-path="url(#clip-path)">
        <path id="Path_286" data-name="Path 286" d="M249.04,243.916a.8.8,0,1,1-.8-.8.8.8,0,0,1,.8.8Zm.006,0a.809.809,0,1,0-.809.809.8.8,0,0,0,.809-.809Z" transform="translate(-246.783 -242.401)" fill="#fcc291" fill-rule="evenodd"/>
      </g>
      <g id="Group_215" data-name="Group 215" clip-path="url(#clip-path)">
        <path id="Path_288" data-name="Path 288" d="M248.966,243.83a.809.809,0,1,1-.809-.809.812.812,0,0,1,.809.809Zm.006,0a.815.815,0,1,0-.815.815.815.815,0,0,0,.815-.815Z" transform="translate(-246.703 -242.315)" fill="#fcc290" fill-rule="evenodd"/>
      </g>
      <g id="Group_216" data-name="Group 216" clip-path="url(#clip-path)">
        <path id="Path_290" data-name="Path 290" d="M248.886,243.744a.815.815,0,1,1-.815-.815.815.815,0,0,1,.815.815Zm.006,0a.822.822,0,1,0-.822.822.818.818,0,0,0,.822-.822Z" transform="translate(-246.617 -242.229)" fill="#fcc190" fill-rule="evenodd"/>
      </g>
      <g id="Group_217" data-name="Group 217" clip-path="url(#clip-path)">
        <path id="Path_292" data-name="Path 292" d="M248.806,243.663a.822.822,0,1,1-.822-.822.818.818,0,0,1,.822.822Zm.006,0a.828.828,0,1,0-.827.827.828.828,0,0,0,.827-.827Z" transform="translate(-246.53 -242.148)" fill="#fcc18e" fill-rule="evenodd"/>
      </g>
      <g id="Group_218" data-name="Group 218" clip-path="url(#clip-path)">
        <path id="Path_294" data-name="Path 294" d="M248.73,243.578a.828.828,0,1,1-.827-.827.828.828,0,0,1,.827.827Zm.006,0a.834.834,0,1,0-.834.834.831.831,0,0,0,.834-.834Z" transform="translate(-246.449 -242.063)" fill="#fac08d" fill-rule="evenodd"/>
      </g>
      <g id="Group_219" data-name="Group 219" clip-path="url(#clip-path)">
        <path id="Path_296" data-name="Path 296" d="M248.657,243.491a.834.834,0,1,1-.834-.834.831.831,0,0,1,.834.834Zm.006,0a.84.84,0,1,0-.84.839.841.841,0,0,0,.84-.839Z" transform="translate(-246.369 -241.976)" fill="#fac08d" fill-rule="evenodd"/>
      </g>
      <g id="Group_220" data-name="Group 220" clip-path="url(#clip-path)">
        <path id="Path_298" data-name="Path 298" d="M248.571,243.411a.84.84,0,1,1-.84-.84.841.841,0,0,1,.84.84Zm.006,0a.846.846,0,1,0-.846.846.844.844,0,0,0,.846-.846Z" transform="translate(-246.277 -241.896)" fill="#fabe8b" fill-rule="evenodd"/>
      </g>
      <g id="Group_221" data-name="Group 221" clip-path="url(#clip-path)">
        <path id="Path_300" data-name="Path 300" d="M248.5,243.324a.846.846,0,1,1-.846-.846.844.844,0,0,1,.846.846Zm.006,0a.852.852,0,1,0-.852.852.851.851,0,0,0,.852-.852Z" transform="translate(-246.197 -241.809)" fill="#fabe8b" fill-rule="evenodd"/>
      </g>
      <g id="Group_222" data-name="Group 222" clip-path="url(#clip-path)">
        <path id="Path_302" data-name="Path 302" d="M248.423,243.244a.852.852,0,1,1-.852-.852.854.854,0,0,1,.852.852Zm.006,0a.858.858,0,1,0-.858.858.857.857,0,0,0,.858-.858Z" transform="translate(-246.117 -241.729)" fill="#fabd8a" fill-rule="evenodd"/>
      </g>
      <g id="Group_223" data-name="Group 223" clip-path="url(#clip-path)">
        <path id="Path_304" data-name="Path 304" d="M248.341,243.158a.858.858,0,1,1-.858-.858.857.857,0,0,1,.858.858Zm.007,0a.864.864,0,1,0-.864.864.864.864,0,0,0,.864-.864Z" transform="translate(-246.029 -241.643)" fill="#fabd89" fill-rule="evenodd"/>
      </g>
      <g id="Group_224" data-name="Group 224" clip-path="url(#clip-path)">
        <path id="Path_306" data-name="Path 306" d="M248.262,243.072a.864.864,0,1,1-.864-.864.868.868,0,0,1,.864.864Zm.006,0a.87.87,0,1,0-.87.87.87.87,0,0,0,.87-.87Z" transform="translate(-245.943 -241.557)" fill="#fabd87" fill-rule="evenodd"/>
      </g>
      <g id="Group_225" data-name="Group 225" clip-path="url(#clip-path)">
        <path id="Path_308" data-name="Path 308" d="M248.188,242.992a.87.87,0,1,1-.87-.87.87.87,0,0,1,.87.87Zm.006,0a.876.876,0,1,0-.876.876.872.872,0,0,0,.876-.876Z" transform="translate(-245.864 -241.477)" fill="#fabc88" fill-rule="evenodd"/>
      </g>
      <g id="Group_226" data-name="Group 226" clip-path="url(#clip-path)">
        <path id="Path_310" data-name="Path 310" d="M248.107,242.905a.876.876,0,1,1-.876-.876.88.88,0,0,1,.876.876Zm.006,0a.882.882,0,1,0-.882.882.883.883,0,0,0,.882-.882Z" transform="translate(-245.777 -241.39)" fill="#fabc86" fill-rule="evenodd"/>
      </g>
      <g id="Group_227" data-name="Group 227" clip-path="url(#clip-path)">
        <path id="Path_312" data-name="Path 312" d="M248.028,242.819a.882.882,0,1,1-.882-.882.883.883,0,0,1,.882.882Zm.006,0a.889.889,0,1,0-.889.888.886.886,0,0,0,.889-.888Z" transform="translate(-245.692 -241.303)" fill="#fabb85" fill-rule="evenodd"/>
      </g>
      <g id="Group_228" data-name="Group 228" clip-path="url(#clip-path)">
        <path id="Path_314" data-name="Path 314" d="M247.954,242.738a.889.889,0,1,1-.889-.889.885.885,0,0,1,.889.889Zm.006,0a.894.894,0,1,0-.894.894.9.9,0,0,0,.894-.894Z" transform="translate(-245.611 -241.223)" fill="#fabc85" fill-rule="evenodd"/>
      </g>
      <g id="Group_229" data-name="Group 229" clip-path="url(#clip-path)">
        <path id="Path_316" data-name="Path 316" d="M247.872,242.652a.894.894,0,1,1-.894-.894.9.9,0,0,1,.894.894Zm.006,0a.9.9,0,1,0-.9.9.9.9,0,0,0,.9-.9Z" transform="translate(-245.524 -241.137)" fill="#faba84" fill-rule="evenodd"/>
      </g>
      <g id="Group_230" data-name="Group 230" clip-path="url(#clip-path)">
        <path id="Path_318" data-name="Path 318" d="M247.794,242.572a.9.9,0,1,1-.9-.9.9.9,0,0,1,.9.9Zm.006,0a.907.907,0,1,0-.907.906.9.9,0,0,0,.907-.906Z" transform="translate(-245.439 -241.056)" fill="#faba82" fill-rule="evenodd"/>
      </g>
      <g id="Group_231" data-name="Group 231" clip-path="url(#clip-path)">
        <path id="Path_320" data-name="Path 320" d="M247.72,242.48a.907.907,0,1,1-.907-.906.909.909,0,0,1,.907.906Zm.006,0a.913.913,0,1,0-.913.913.912.912,0,0,0,.913-.913Z" transform="translate(-245.359 -240.965)" fill="#fab983" fill-rule="evenodd"/>
      </g>
      <g id="Group_232" data-name="Group 232" clip-path="url(#clip-path)">
        <path id="Path_322" data-name="Path 322" d="M247.645,242.4a.913.913,0,1,1-.913-.913.911.911,0,0,1,.913.913Zm.006,0a.919.919,0,1,0-.919.919.918.918,0,0,0,.919-.919Z" transform="translate(-245.278 -240.885)" fill="#fab982" fill-rule="evenodd"/>
      </g>
      <g id="Group_233" data-name="Group 233" clip-path="url(#clip-path)">
        <path id="Path_324" data-name="Path 324" d="M247.558,242.313a.919.919,0,1,1-.919-.919.922.922,0,0,1,.919.919Zm.006,0a.925.925,0,1,0-.925.925.925.925,0,0,0,.925-.925Z" transform="translate(-245.185 -240.798)" fill="#fab881" fill-rule="evenodd"/>
      </g>
      <g id="Group_234" data-name="Group 234" clip-path="url(#clip-path)">
        <path id="Path_326" data-name="Path 326" d="M247.484,242.232a.925.925,0,1,1-.925-.925.925.925,0,0,1,.925.925Zm.006,0a.931.931,0,1,0-.931.931.927.927,0,0,0,.931-.931Z" transform="translate(-245.105 -240.717)" fill="#fab87f" fill-rule="evenodd"/>
      </g>
      <g id="Group_235" data-name="Group 235" clip-path="url(#clip-path)">
        <path id="Path_328" data-name="Path 328" d="M247.41,242.146a.931.931,0,1,1-.931-.931.935.935,0,0,1,.931.931Zm.006,0a.937.937,0,1,0-.937.937.938.938,0,0,0,.937-.937Z" transform="translate(-245.025 -240.631)" fill="#fab77e" fill-rule="evenodd"/>
      </g>
      <g id="Group_236" data-name="Group 236" clip-path="url(#clip-path)">
        <path id="Path_330" data-name="Path 330" d="M247.329,242.061a.937.937,0,1,1-.937-.937.938.938,0,0,1,.937.937Zm.006,0a.943.943,0,1,0-.943.943.94.94,0,0,0,.943-.943Z" transform="translate(-244.938 -240.546)" fill="#fab77e" fill-rule="evenodd"/>
      </g>
      <g id="Group_237" data-name="Group 237" clip-path="url(#clip-path)">
        <path id="Path_332" data-name="Path 332" d="M247.251,241.98a.943.943,0,1,1-.943-.943.94.94,0,0,1,.943.943Zm.006,0a.949.949,0,1,0-.949.949.95.95,0,0,0,.949-.949Z" transform="translate(-244.853 -240.465)" fill="#fab67d" fill-rule="evenodd"/>
      </g>
      <g id="Group_238" data-name="Group 238" clip-path="url(#clip-path)">
        <path id="Path_334" data-name="Path 334" d="M247.176,241.895a.949.949,0,1,1-.949-.949.95.95,0,0,1,.949.949Zm.006,0a.955.955,0,1,0-.955.955.953.953,0,0,0,.955-.955Z" transform="translate(-244.773 -240.379)" fill="#fab67d" fill-rule="evenodd"/>
      </g>
      <g id="Group_239" data-name="Group 239" clip-path="url(#clip-path)">
        <path id="Path_336" data-name="Path 336" d="M247.1,241.813a.955.955,0,1,1-.955-.955.953.953,0,0,1,.955.955Zm.006,0a.961.961,0,1,0-.961.961.963.963,0,0,0,.961-.961Z" transform="translate(-244.686 -240.298)" fill="#f9b57c" fill-rule="evenodd"/>
      </g>
      <g id="Group_240" data-name="Group 240" clip-path="url(#clip-path)">
        <path id="Path_338" data-name="Path 338" d="M247.015,241.727a.961.961,0,1,1-.961-.961.963.963,0,0,1,.961.961Zm.006,0a.968.968,0,1,0-.968.968.966.966,0,0,0,.968-.968Z" transform="translate(-244.599 -240.211)" fill="#f8b57b" fill-rule="evenodd"/>
      </g>
      <g id="Group_241" data-name="Group 241" clip-path="url(#clip-path)">
        <path id="Path_340" data-name="Path 340" d="M246.94,241.64a.968.968,0,1,1-.968-.968.966.966,0,0,1,.968.968Zm.006,0a.973.973,0,1,0-.973.974.972.972,0,0,0,.973-.974Z" transform="translate(-244.518 -240.125)" fill="#f8b47a" fill-rule="evenodd"/>
      </g>
      <g id="Group_242" data-name="Group 242" clip-path="url(#clip-path)">
        <path id="Path_342" data-name="Path 342" d="M246.859,241.56a.973.973,0,1,1-.973-.974.976.976,0,0,1,.973.974Zm.006,0a.98.98,0,1,0-.98.98.979.979,0,0,0,.98-.98Z" transform="translate(-244.432 -240.045)" fill="#f8b479" fill-rule="evenodd"/>
      </g>
      <g id="Group_243" data-name="Group 243" clip-path="url(#clip-path)">
        <path id="Path_344" data-name="Path 344" d="M246.78,241.475a.98.98,0,1,1-.98-.98.979.979,0,0,1,.98.98Zm.006,0a.986.986,0,1,0-.986.986.982.982,0,0,0,.986-.986Z" transform="translate(-244.347 -239.96)" fill="#f8b379" fill-rule="evenodd"/>
      </g>
      <g id="Group_244" data-name="Group 244" clip-path="url(#clip-path)">
        <path id="Path_346" data-name="Path 346" d="M246.706,241.388a.986.986,0,1,1-.986-.986.99.99,0,0,1,.986.986Zm.006,0a.992.992,0,1,0-.992.992.992.992,0,0,0,.992-.992Z" transform="translate(-244.267 -239.873)" fill="#f8b378" fill-rule="evenodd"/>
      </g>
      <g id="Group_245" data-name="Group 245" clip-path="url(#clip-path)">
        <path id="Path_348" data-name="Path 348" d="M246.62,241.308a.992.992,0,1,1-.992-.992.992.992,0,0,1,.992.992Zm.006,0a1,1,0,1,0-1,1,.995.995,0,0,0,1-1Z" transform="translate(-244.174 -239.793)" fill="#f8b277" fill-rule="evenodd"/>
      </g>
      <g id="Group_246" data-name="Group 246" clip-path="url(#clip-path)">
        <path id="Path_350" data-name="Path 350" d="M246.546,241.221a1,1,0,1,1-1-1,.995.995,0,0,1,1,1Zm.006,0a1,1,0,1,0-1,1,1.005,1.005,0,0,0,1-1Z" transform="translate(-244.094 -239.706)" fill="#f8b276" fill-rule="evenodd"/>
      </g>
      <g id="Group_247" data-name="Group 247" clip-path="url(#clip-path)">
        <path id="Path_352" data-name="Path 352" d="M246.471,241.141a1,1,0,1,1-1-1,1.005,1.005,0,0,1,1,1Zm.006,0a1.01,1.01,0,1,0-1.01,1.01,1.008,1.008,0,0,0,1.01-1.01Z" transform="translate(-244.013 -239.626)" fill="#f9b175" fill-rule="evenodd"/>
      </g>
      <g id="Group_248" data-name="Group 248" clip-path="url(#clip-path)">
        <path id="Path_354" data-name="Path 354" d="M246.39,241.054a1.01,1.01,0,1,1-1.01-1.01,1.008,1.008,0,0,1,1.01,1.01Zm.006,0a1.016,1.016,0,1,0-1.016,1.016,1.018,1.018,0,0,0,1.016-1.016Z" transform="translate(-243.926 -239.539)" fill="#f9b174" fill-rule="evenodd"/>
      </g>
      <g id="Group_249" data-name="Group 249" clip-path="url(#clip-path)">
        <path id="Path_356" data-name="Path 356" d="M246.312,240.969a1.016,1.016,0,1,1-1.016-1.016,1.018,1.018,0,0,1,1.016,1.016Zm.006,0a1.022,1.022,0,1,0-1.022,1.022,1.021,1.021,0,0,0,1.022-1.022Z" transform="translate(-243.841 -239.454)" fill="#f9b074" fill-rule="evenodd"/>
      </g>
      <g id="Group_250" data-name="Group 250" clip-path="url(#clip-path)">
        <path id="Path_358" data-name="Path 358" d="M246.238,240.888a1.022,1.022,0,1,1-1.022-1.022,1.021,1.021,0,0,1,1.022,1.022Zm.006,0a1.028,1.028,0,1,0-1.028,1.028,1.027,1.027,0,0,0,1.028-1.028Z" transform="translate(-243.761 -239.373)" fill="#f9b073" fill-rule="evenodd"/>
      </g>
      <g id="Group_251" data-name="Group 251" clip-path="url(#clip-path)">
        <path id="Path_360" data-name="Path 360" d="M246.158,240.8a1.028,1.028,0,1,1-1.028-1.028,1.031,1.031,0,0,1,1.028,1.028Zm.006,0a1.034,1.034,0,1,0-1.034,1.035,1.033,1.033,0,0,0,1.034-1.035Z" transform="translate(-243.675 -239.287)" fill="#f9b072" fill-rule="evenodd"/>
      </g>
      <g id="Group_252" data-name="Group 252" clip-path="url(#clip-path)">
        <path id="Path_362" data-name="Path 362" d="M246.077,240.716a1.034,1.034,0,1,1-1.034-1.035,1.033,1.033,0,0,1,1.034,1.035Zm.007,0a1.041,1.041,0,1,0-1.041,1.04,1.04,1.04,0,0,0,1.041-1.04Z" transform="translate(-243.589 -239.201)" fill="#f9af72" fill-rule="evenodd"/>
      </g>
      <g id="Group_253" data-name="Group 253" clip-path="url(#clip-path)">
        <path id="Path_364" data-name="Path 364" d="M246,240.636a1.041,1.041,0,1,1-1.041-1.041A1.044,1.044,0,0,1,246,240.636Zm.006,0a1.047,1.047,0,1,0-1.047,1.047,1.047,1.047,0,0,0,1.047-1.047Z" transform="translate(-243.508 -239.12)" fill="#f9af70" fill-rule="evenodd"/>
      </g>
      <g id="Group_254" data-name="Group 254" clip-path="url(#clip-path)">
        <path id="Path_366" data-name="Path 366" d="M245.921,240.549a1.047,1.047,0,1,1-1.047-1.047,1.047,1.047,0,0,1,1.047,1.047Zm.006,0a1.053,1.053,0,1,0-1.052,1.053,1.049,1.049,0,0,0,1.052-1.053Z" transform="translate(-243.421 -239.034)" fill="#f9af6f" fill-rule="evenodd"/>
      </g>
      <g id="Group_255" data-name="Group 255" clip-path="url(#clip-path)">
        <path id="Path_368" data-name="Path 368" d="M245.842,240.469a1.053,1.053,0,1,1-1.052-1.053,1.057,1.057,0,0,1,1.052,1.053Zm.007,0a1.059,1.059,0,1,0-1.059,1.059,1.06,1.06,0,0,0,1.059-1.059Z" transform="translate(-243.336 -238.953)" fill="#f9ad70" fill-rule="evenodd"/>
      </g>
      <g id="Group_256" data-name="Group 256" clip-path="url(#clip-path)">
        <path id="Path_370" data-name="Path 370" d="M245.768,240.383a1.059,1.059,0,1,1-1.059-1.059,1.06,1.06,0,0,1,1.059,1.059Zm.006,0a1.065,1.065,0,1,0-1.065,1.065,1.062,1.062,0,0,0,1.065-1.065Z" transform="translate(-243.255 -238.868)" fill="#f9ad6e" fill-rule="evenodd"/>
      </g>
      <g id="Group_257" data-name="Group 257" clip-path="url(#clip-path)">
        <path id="Path_372" data-name="Path 372" d="M245.694,240.3a1.065,1.065,0,1,1-1.065-1.065,1.062,1.062,0,0,1,1.065,1.065Zm.006,0a1.071,1.071,0,1,0-1.071,1.071A1.073,1.073,0,0,0,245.7,240.3Z" transform="translate(-243.175 -238.781)" fill="#f9ad6e" fill-rule="evenodd"/>
      </g>
      <g id="Group_258" data-name="Group 258" clip-path="url(#clip-path)">
        <path id="Path_374" data-name="Path 374" d="M245.608,240.216a1.071,1.071,0,1,1-1.071-1.071,1.073,1.073,0,0,1,1.071,1.071Zm.006,0a1.077,1.077,0,1,0-1.077,1.077,1.075,1.075,0,0,0,1.077-1.077Z" transform="translate(-243.083 -238.701)" fill="#f9ac6d" fill-rule="evenodd"/>
      </g>
      <g id="Group_259" data-name="Group 259" clip-path="url(#clip-path)">
        <path id="Path_376" data-name="Path 376" d="M245.534,240.13a1.077,1.077,0,1,1-1.077-1.077,1.075,1.075,0,0,1,1.077,1.077Zm.006,0a1.083,1.083,0,1,0-1.083,1.083,1.082,1.082,0,0,0,1.083-1.083Z" transform="translate(-243.002 -238.615)" fill="#f9ac6c" fill-rule="evenodd"/>
      </g>
      <g id="Group_260" data-name="Group 260" clip-path="url(#clip-path)">
        <path id="Path_378" data-name="Path 378" d="M245.458,240.043a1.083,1.083,0,1,1-1.083-1.083,1.085,1.085,0,0,1,1.083,1.083Zm.006,0a1.089,1.089,0,1,0-1.089,1.089,1.088,1.088,0,0,0,1.089-1.089Z" transform="translate(-242.921 -238.528)" fill="#f8ac6b" fill-rule="evenodd"/>
      </g>
      <g id="Group_261" data-name="Group 261" clip-path="url(#clip-path)">
        <path id="Path_380" data-name="Path 380" d="M245.38,239.964a1.089,1.089,0,1,1-1.089-1.089,1.088,1.088,0,0,1,1.089,1.089Zm.006,0a1.1,1.1,0,1,0-1.1,1.1,1.095,1.095,0,0,0,1.1-1.1Z" transform="translate(-242.836 -238.449)" fill="#f8ac6b" fill-rule="evenodd"/>
      </g>
      <g id="Group_262" data-name="Group 262" clip-path="url(#clip-path)">
        <path id="Path_382" data-name="Path 382" d="M245.3,239.877a1.1,1.1,0,1,1-1.1-1.1,1.1,1.1,0,0,1,1.1,1.1Zm.006,0a1.1,1.1,0,1,0-1.1,1.1,1.1,1.1,0,0,0,1.1-1.1Z" transform="translate(-242.749 -238.362)" fill="#f8ab6a" fill-rule="evenodd"/>
      </g>
      <g id="Group_263" data-name="Group 263" clip-path="url(#clip-path)">
        <path id="Path_384" data-name="Path 384" d="M245.225,239.8a1.1,1.1,0,1,1-1.1-1.1,1.1,1.1,0,0,1,1.1,1.1Zm.006,0a1.107,1.107,0,1,0-1.107,1.107,1.1,1.1,0,0,0,1.107-1.107Z" transform="translate(-242.669 -238.281)" fill="#f8ab69" fill-rule="evenodd"/>
      </g>
      <g id="Group_264" data-name="Group 264" clip-path="url(#clip-path)">
        <path id="Path_386" data-name="Path 386" d="M245.144,239.711a1.107,1.107,0,1,1-1.107-1.107,1.111,1.111,0,0,1,1.107,1.107Zm.007,0a1.114,1.114,0,1,0-1.114,1.114,1.114,1.114,0,0,0,1.114-1.114Z" transform="translate(-242.583 -238.195)" fill="#f8aa68" fill-rule="evenodd"/>
      </g>
      <g id="Group_265" data-name="Group 265" clip-path="url(#clip-path)">
        <path id="Path_388" data-name="Path 388" d="M245.065,239.624a1.114,1.114,0,1,1-1.114-1.114,1.114,1.114,0,0,1,1.114,1.114Zm.006,0a1.12,1.12,0,1,0-1.12,1.119,1.117,1.117,0,0,0,1.12-1.119Z" transform="translate(-242.497 -238.109)" fill="#f8aa67" fill-rule="evenodd"/>
      </g>
      <g id="Group_266" data-name="Group 266" clip-path="url(#clip-path)">
        <path id="Path_390" data-name="Path 390" d="M244.989,239.544a1.12,1.12,0,1,1-1.12-1.12,1.116,1.116,0,0,1,1.12,1.12Zm.006,0a1.126,1.126,0,1,0-1.126,1.126A1.127,1.127,0,0,0,245,239.544Z" transform="translate(-242.416 -238.028)" fill="#f8a866" fill-rule="evenodd"/>
      </g>
      <g id="Group_267" data-name="Group 267" clip-path="url(#clip-path)">
        <path id="Path_392" data-name="Path 392" d="M244.91,239.458a1.126,1.126,0,1,1-1.126-1.126,1.127,1.127,0,0,1,1.126,1.126Zm.006,0a1.132,1.132,0,1,0-1.132,1.132,1.13,1.13,0,0,0,1.132-1.132Z" transform="translate(-242.331 -237.943)" fill="#f8a866" fill-rule="evenodd"/>
      </g>
      <g id="Group_268" data-name="Group 268" clip-path="url(#clip-path)">
        <path id="Path_394" data-name="Path 394" d="M244.83,239.371a1.132,1.132,0,1,1-1.132-1.132,1.13,1.13,0,0,1,1.132,1.132Zm.006,0a1.138,1.138,0,1,0-1.138,1.138,1.141,1.141,0,0,0,1.138-1.138Z" transform="translate(-242.244 -237.856)" fill="#f8a865" fill-rule="evenodd"/>
      </g>
      <g id="Group_269" data-name="Group 269" clip-path="url(#clip-path)">
        <path id="Path_396" data-name="Path 396" d="M244.755,239.285a1.138,1.138,0,1,1-1.138-1.138,1.14,1.14,0,0,1,1.138,1.138Zm.006,0a1.144,1.144,0,1,0-1.144,1.144,1.143,1.143,0,0,0,1.144-1.144Z" transform="translate(-242.163 -237.77)" fill="#f8a864" fill-rule="evenodd"/>
      </g>
      <g id="Group_270" data-name="Group 270" clip-path="url(#clip-path)">
        <path id="Path_398" data-name="Path 398" d="M244.675,239.2a1.144,1.144,0,1,1-1.144-1.144,1.142,1.142,0,0,1,1.144,1.144Zm.006,0a1.15,1.15,0,1,0-1.15,1.15,1.149,1.149,0,0,0,1.15-1.15Z" transform="translate(-242.077 -237.689)" fill="#f8a663" fill-rule="evenodd"/>
      </g>
      <g id="Group_271" data-name="Group 271" clip-path="url(#clip-path)">
        <path id="Path_400" data-name="Path 400" d="M244.6,239.118a1.15,1.15,0,1,1-1.15-1.15,1.153,1.153,0,0,1,1.15,1.15Zm.006,0a1.156,1.156,0,1,0-1.156,1.156,1.156,1.156,0,0,0,1.156-1.156Z" transform="translate(-241.991 -237.603)" fill="#f8a762" fill-rule="evenodd"/>
      </g>
      <g id="Group_272" data-name="Group 272" clip-path="url(#clip-path)">
        <path id="Path_402" data-name="Path 402" d="M244.52,239.033a1.156,1.156,0,1,1-1.156-1.156,1.156,1.156,0,0,1,1.156,1.156Zm.006,0a1.162,1.162,0,1,0-1.162,1.162,1.159,1.159,0,0,0,1.162-1.162Z" transform="translate(-241.909 -237.517)" fill="#f8a561" fill-rule="evenodd"/>
      </g>
      <g id="Group_273" data-name="Group 273" clip-path="url(#clip-path)">
        <path id="Path_404" data-name="Path 404" d="M244.446,238.952a1.162,1.162,0,1,1-1.162-1.163,1.166,1.166,0,0,1,1.162,1.163Zm.006,0a1.168,1.168,0,1,0-1.168,1.168,1.169,1.169,0,0,0,1.168-1.168Z" transform="translate(-241.83 -237.437)" fill="#f8a560" fill-rule="evenodd"/>
      </g>
      <g id="Group_274" data-name="Group 274" clip-path="url(#clip-path)">
        <path id="Path_406" data-name="Path 406" d="M244.361,238.866a1.168,1.168,0,1,1-1.168-1.168,1.169,1.169,0,0,1,1.168,1.168Zm.006,0a1.175,1.175,0,1,0-1.175,1.175,1.172,1.172,0,0,0,1.175-1.175Z" transform="translate(-241.739 -237.35)" fill="#f8a55f" fill-rule="evenodd"/>
      </g>
      <g id="Group_275" data-name="Group 275" clip-path="url(#clip-path)">
        <path id="Path_408" data-name="Path 408" d="M244.286,238.785a1.175,1.175,0,1,1-1.175-1.175,1.172,1.172,0,0,1,1.175,1.175Zm.006,0a1.181,1.181,0,1,0-1.18,1.18,1.182,1.182,0,0,0,1.18-1.18Z" transform="translate(-241.657 -237.27)" fill="#f8a55e" fill-rule="evenodd"/>
      </g>
      <g id="Group_276" data-name="Group 276" clip-path="url(#clip-path)">
        <path id="Path_410" data-name="Path 410" d="M244.212,238.7a1.18,1.18,0,1,1-1.18-1.18,1.182,1.182,0,0,1,1.18,1.18Zm.006,0a1.186,1.186,0,1,0-1.186,1.187,1.184,1.184,0,0,0,1.186-1.187Z" transform="translate(-241.577 -237.184)" fill="#f8a35d" fill-rule="evenodd"/>
      </g>
      <g id="Group_277" data-name="Group 277" clip-path="url(#clip-path)">
        <path id="Path_412" data-name="Path 412" d="M244.131,238.612a1.186,1.186,0,1,1-1.186-1.187,1.184,1.184,0,0,1,1.186,1.187Zm.007,0a1.193,1.193,0,1,0-1.193,1.193,1.2,1.2,0,0,0,1.193-1.193Z" transform="translate(-241.49 -237.097)" fill="#f8a25c" fill-rule="evenodd"/>
      </g>
      <g id="Group_278" data-name="Group 278" clip-path="url(#clip-path)">
        <path id="Path_414" data-name="Path 414" d="M244.051,238.532a1.193,1.193,0,1,1-1.193-1.193,1.195,1.195,0,0,1,1.193,1.193Zm.006,0a1.2,1.2,0,1,0-1.2,1.2,1.2,1.2,0,0,0,1.2-1.2Z" transform="translate(-241.404 -237.017)" fill="#f8a25a" fill-rule="evenodd"/>
      </g>
      <g id="Group_279" data-name="Group 279" clip-path="url(#clip-path)">
        <path id="Path_416" data-name="Path 416" d="M243.975,238.447a1.2,1.2,0,1,1-1.2-1.2,1.2,1.2,0,0,1,1.2,1.2Zm.006,0a1.2,1.2,0,1,0-1.2,1.2,1.2,1.2,0,0,0,1.2-1.2Z" transform="translate(-241.323 -236.932)" fill="#f9a259" fill-rule="evenodd"/>
      </g>
      <g id="Group_280" data-name="Group 280" clip-path="url(#clip-path)">
        <path id="Path_418" data-name="Path 418" d="M243.9,238.366a1.2,1.2,0,1,1-1.2-1.2,1.208,1.208,0,0,1,1.2,1.2Zm.006,0a1.211,1.211,0,1,0-1.211,1.211,1.21,1.21,0,0,0,1.211-1.211Z" transform="translate(-241.239 -236.851)" fill="#f8a259" fill-rule="evenodd"/>
      </g>
      <g id="Group_281" data-name="Group 281" clip-path="url(#clip-path)">
        <path id="Path_420" data-name="Path 420" d="M243.817,238.28a1.211,1.211,0,1,1-1.211-1.211,1.21,1.21,0,0,1,1.211,1.211Zm.006,0a1.217,1.217,0,1,0-1.217,1.217,1.216,1.216,0,0,0,1.217-1.217Z" transform="translate(-241.152 -236.765)" fill="#f7a158" fill-rule="evenodd"/>
      </g>
      <g id="Group_282" data-name="Group 282" clip-path="url(#clip-path)">
        <path id="Path_422" data-name="Path 422" d="M243.736,238.193a1.217,1.217,0,1,1-1.217-1.217,1.22,1.22,0,0,1,1.217,1.217Zm.006,0a1.223,1.223,0,1,0-1.223,1.223,1.223,1.223,0,0,0,1.223-1.223Z" transform="translate(-241.065 -236.678)" fill="#f7a157" fill-rule="evenodd"/>
      </g>
      <g id="Group_283" data-name="Group 283" clip-path="url(#clip-path)">
        <path id="Path_424" data-name="Path 424" d="M243.662,238.113a1.223,1.223,0,1,1-1.223-1.223,1.223,1.223,0,0,1,1.223,1.223Zm.006,0a1.229,1.229,0,1,0-1.229,1.229,1.226,1.226,0,0,0,1.229-1.229Z" transform="translate(-240.985 -236.598)" fill="#f7a056" fill-rule="evenodd"/>
      </g>
      <g id="Group_284" data-name="Group 284" clip-path="url(#clip-path)">
        <path id="Path_426" data-name="Path 426" d="M243.582,238.026a1.229,1.229,0,1,1-1.229-1.229,1.233,1.233,0,0,1,1.229,1.229Zm.006,0a1.235,1.235,0,1,0-1.235,1.235,1.236,1.236,0,0,0,1.235-1.235Z" transform="translate(-240.898 -236.511)" fill="#f79f55" fill-rule="evenodd"/>
      </g>
      <g id="Group_285" data-name="Group 285" clip-path="url(#clip-path)">
        <path id="Path_428" data-name="Path 428" d="M243.507,237.942a1.235,1.235,0,1,1-1.235-1.235,1.236,1.236,0,0,1,1.235,1.235Zm.006,0a1.241,1.241,0,1,0-1.241,1.241,1.239,1.239,0,0,0,1.241-1.241Z" transform="translate(-240.817 -236.426)" fill="#f79e54" fill-rule="evenodd"/>
      </g>
      <g id="Group_286" data-name="Group 286" clip-path="url(#clip-path)">
        <path id="Path_430" data-name="Path 430" d="M243.423,237.86a1.241,1.241,0,1,1-1.241-1.242,1.239,1.239,0,0,1,1.241,1.242Zm.006,0a1.248,1.248,0,1,0-1.247,1.247,1.249,1.249,0,0,0,1.247-1.247Z" transform="translate(-240.728 -236.345)" fill="#f79e54" fill-rule="evenodd"/>
      </g>
      <g id="Group_287" data-name="Group 287" clip-path="url(#clip-path)">
        <path id="Path_432" data-name="Path 432" d="M243.348,237.775a1.248,1.248,0,1,1-1.247-1.247,1.249,1.249,0,0,1,1.247,1.247Zm.006,0a1.254,1.254,0,1,0-1.254,1.254,1.252,1.252,0,0,0,1.254-1.254Z" transform="translate(-240.647 -236.259)" fill="#f79e53" fill-rule="evenodd"/>
      </g>
      <g id="Group_288" data-name="Group 288" clip-path="url(#clip-path)">
        <path id="Path_434" data-name="Path 434" d="M243.274,237.693a1.254,1.254,0,1,1-1.254-1.254,1.252,1.252,0,0,1,1.254,1.254Zm.006,0a1.259,1.259,0,1,0-1.259,1.259,1.258,1.258,0,0,0,1.259-1.259Z" transform="translate(-240.566 -236.178)" fill="#f89d52" fill-rule="evenodd"/>
      </g>
      <g id="Group_289" data-name="Group 289" clip-path="url(#clip-path)">
        <path id="Path_436" data-name="Path 436" d="M243.193,237.608a1.259,1.259,0,1,1-1.259-1.259,1.262,1.262,0,0,1,1.259,1.259Zm.006,0a1.266,1.266,0,1,0-1.266,1.266,1.265,1.265,0,0,0,1.266-1.266Z" transform="translate(-240.48 -236.093)" fill="#f79c51" fill-rule="evenodd"/>
      </g>
      <g id="Group_290" data-name="Group 290" clip-path="url(#clip-path)">
        <path id="Path_438" data-name="Path 438" d="M243.112,237.521a1.266,1.266,0,1,1-1.266-1.266,1.265,1.265,0,0,1,1.266,1.266Zm.006,0a1.272,1.272,0,1,0-1.272,1.272,1.272,1.272,0,0,0,1.272-1.272Z" transform="translate(-240.392 -236.006)" fill="#f89c50" fill-rule="evenodd"/>
      </g>
      <g id="Group_291" data-name="Group 291" clip-path="url(#clip-path)">
        <path id="Path_440" data-name="Path 440" d="M243.038,237.44a1.272,1.272,0,1,1-1.272-1.272,1.275,1.275,0,0,1,1.272,1.272Zm.006,0a1.278,1.278,0,1,0-1.278,1.278,1.278,1.278,0,0,0,1.278-1.278Z" transform="translate(-240.312 -235.925)" fill="#f89c4f" fill-rule="evenodd"/>
      </g>
      <g id="Group_292" data-name="Group 292" clip-path="url(#clip-path)">
        <path id="Path_442" data-name="Path 442" d="M242.959,237.355a1.278,1.278,0,1,1-1.278-1.278,1.278,1.278,0,0,1,1.278,1.278Zm.006,0a1.284,1.284,0,1,0-1.284,1.284,1.28,1.28,0,0,0,1.284-1.284Z" transform="translate(-240.227 -235.84)" fill="#f89a4e" fill-rule="evenodd"/>
      </g>
      <g id="Group_293" data-name="Group 293" clip-path="url(#clip-path)">
        <path id="Path_444" data-name="Path 444" d="M242.879,237.268a1.284,1.284,0,1,1-1.284-1.284,1.288,1.288,0,0,1,1.284,1.284Zm.006,0a1.29,1.29,0,1,0-1.29,1.29,1.291,1.291,0,0,0,1.29-1.29Z" transform="translate(-240.141 -235.753)" fill="#f89a4d" fill-rule="evenodd"/>
      </g>
      <g id="Group_294" data-name="Group 294" clip-path="url(#clip-path)">
        <path id="Path_446" data-name="Path 446" d="M242.805,237.188a1.29,1.29,0,1,1-1.29-1.29,1.291,1.291,0,0,1,1.29,1.29Zm.006,0a1.3,1.3,0,1,0-1.3,1.3,1.293,1.293,0,0,0,1.3-1.3Z" transform="translate(-240.061 -235.673)" fill="#f89a4c" fill-rule="evenodd"/>
      </g>
      <g id="Group_295" data-name="Group 295" clip-path="url(#clip-path)">
        <path id="Path_448" data-name="Path 448" d="M242.724,237.1a1.3,1.3,0,1,1-1.3-1.3,1.293,1.293,0,0,1,1.3,1.3Zm.006,0a1.3,1.3,0,1,0-1.3,1.3,1.3,1.3,0,0,0,1.3-1.3Z" transform="translate(-239.974 -235.587)" fill="#f8994c" fill-rule="evenodd"/>
      </g>
      <g id="Group_296" data-name="Group 296" clip-path="url(#clip-path)">
        <path id="Path_450" data-name="Path 450" d="M242.643,237.021a1.3,1.3,0,1,1-1.3-1.3,1.3,1.3,0,0,1,1.3,1.3Zm.006,0a1.309,1.309,0,1,0-1.309,1.308,1.306,1.306,0,0,0,1.309-1.308Z" transform="translate(-239.887 -235.506)" fill="#f8994a" fill-rule="evenodd"/>
      </g>
      <g id="Group_297" data-name="Group 297" clip-path="url(#clip-path)">
        <path id="Path_452" data-name="Path 452" d="M242.569,236.934a1.309,1.309,0,1,1-1.309-1.308,1.306,1.306,0,0,1,1.309,1.308Zm.006,0a1.314,1.314,0,1,0-1.314,1.314,1.317,1.317,0,0,0,1.314-1.314Z" transform="translate(-239.806 -235.419)" fill="#f69849" fill-rule="evenodd"/>
      </g>
      <g id="Group_298" data-name="Group 298" clip-path="url(#clip-path)">
        <path id="Path_454" data-name="Path 454" d="M242.5,236.85a1.314,1.314,0,1,1-1.314-1.314,1.317,1.317,0,0,1,1.314,1.314Zm.006,0a1.32,1.32,0,1,0-1.321,1.321,1.32,1.32,0,0,0,1.321-1.321Z" transform="translate(-239.727 -235.334)" fill="#f69848" fill-rule="evenodd"/>
      </g>
      <g id="Group_299" data-name="Group 299" clip-path="url(#clip-path)">
        <path id="Path_456" data-name="Path 456" d="M242.409,236.768a1.32,1.32,0,1,1-1.321-1.321,1.32,1.32,0,0,1,1.321,1.321Zm.006,0a1.327,1.327,0,1,0-1.327,1.326,1.326,1.326,0,0,0,1.327-1.326Z" transform="translate(-239.635 -235.253)" fill="#f69647" fill-rule="evenodd"/>
      </g>
      <g id="Group_300" data-name="Group 300" clip-path="url(#clip-path)">
        <path id="Path_458" data-name="Path 458" d="M242.335,236.683a1.327,1.327,0,1,1-1.327-1.326,1.33,1.33,0,0,1,1.327,1.326Zm.006,0a1.333,1.333,0,1,0-1.333,1.333,1.332,1.332,0,0,0,1.333-1.333Z" transform="translate(-239.555 -235.167)" fill="#f69646" fill-rule="evenodd"/>
      </g>
      <g id="Group_301" data-name="Group 301" clip-path="url(#clip-path)">
        <path id="Path_460" data-name="Path 460" d="M242.261,236.6a1.333,1.333,0,1,1-1.333-1.333,1.332,1.332,0,0,1,1.333,1.333Zm.006,0a1.339,1.339,0,1,0-1.339,1.339,1.339,1.339,0,0,0,1.339-1.339Z" transform="translate(-239.474 -235.081)" fill="#f69644" fill-rule="evenodd"/>
      </g>
      <g id="Group_302" data-name="Group 302" clip-path="url(#clip-path)">
        <path id="Path_462" data-name="Path 462" d="M242.18,236.516a1.339,1.339,0,1,1-1.339-1.339,1.343,1.343,0,0,1,1.339,1.339Zm.006,0a1.345,1.345,0,1,0-1.345,1.345,1.345,1.345,0,0,0,1.345-1.345Z" transform="translate(-239.387 -235.001)" fill="#f69543" fill-rule="evenodd"/>
      </g>
      <g id="Group_303" data-name="Group 303" clip-path="url(#clip-path)">
        <path id="Path_464" data-name="Path 464" d="M242.1,236.429a1.345,1.345,0,1,1-1.345-1.345,1.346,1.346,0,0,1,1.345,1.345Zm.006,0a1.351,1.351,0,1,0-1.351,1.351,1.348,1.348,0,0,0,1.351-1.351Z" transform="translate(-239.301 -234.914)" fill="#f69542" fill-rule="evenodd"/>
      </g>
      <g id="Group_304" data-name="Group 304" clip-path="url(#clip-path)">
        <path id="Path_466" data-name="Path 466" d="M242.027,236.35A1.351,1.351,0,1,1,240.676,235a1.348,1.348,0,0,1,1.351,1.351Zm.006,0a1.357,1.357,0,1,0-1.357,1.357,1.358,1.358,0,0,0,1.357-1.357Z" transform="translate(-239.222 -234.835)" fill="#f69341" fill-rule="evenodd"/>
      </g>
      <g id="Group_305" data-name="Group 305" clip-path="url(#clip-path)">
        <path id="Path_468" data-name="Path 468" d="M241.946,236.263a1.357,1.357,0,1,1-1.357-1.357,1.358,1.358,0,0,1,1.357,1.357Zm.006,0a1.363,1.363,0,1,0-1.363,1.363,1.361,1.361,0,0,0,1.363-1.363Z" transform="translate(-239.135 -234.748)" fill="#f69340" fill-rule="evenodd"/>
      </g>
      <g id="Group_306" data-name="Group 306" clip-path="url(#clip-path)">
        <path id="Path_470" data-name="Path 470" d="M241.866,236.176a1.363,1.363,0,1,1-1.363-1.363,1.361,1.361,0,0,1,1.363,1.363Zm.006,0a1.369,1.369,0,1,0-1.369,1.369,1.371,1.371,0,0,0,1.369-1.369Z" transform="translate(-239.049 -234.661)" fill="#f7933f" fill-rule="evenodd"/>
      </g>
      <g id="Group_307" data-name="Group 307" clip-path="url(#clip-path)">
        <path id="Path_472" data-name="Path 472" d="M241.792,236.09a1.369,1.369,0,1,1-1.369-1.369,1.371,1.371,0,0,1,1.369,1.369Zm.006,0a1.375,1.375,0,1,0-1.375,1.375,1.374,1.374,0,0,0,1.375-1.375Z" transform="translate(-238.969 -234.575)" fill="#f7923e" fill-rule="evenodd"/>
      </g>
      <g id="Group_308" data-name="Group 308" clip-path="url(#clip-path)">
        <path id="Path_474" data-name="Path 474" d="M241.711,236.01a1.375,1.375,0,1,1-1.375-1.375,1.374,1.374,0,0,1,1.375,1.375Zm.006,0a1.381,1.381,0,1,0-1.381,1.381,1.38,1.38,0,0,0,1.381-1.381Z" transform="translate(-238.882 -234.495)" fill="#f7923c" fill-rule="evenodd"/>
      </g>
      <g id="Group_309" data-name="Group 309" clip-path="url(#clip-path)">
        <path id="Path_476" data-name="Path 476" d="M241.63,235.924a1.381,1.381,0,1,1-1.381-1.381,1.384,1.384,0,0,1,1.381,1.381Zm.006,0a1.388,1.388,0,1,0-1.388,1.388,1.387,1.387,0,0,0,1.388-1.388Z" transform="translate(-238.795 -234.408)" fill="#f7913b" fill-rule="evenodd"/>
      </g>
      <g id="Group_310" data-name="Group 310" clip-path="url(#clip-path)">
        <path id="Path_478" data-name="Path 478" d="M241.558,235.838a1.388,1.388,0,1,1-1.388-1.388,1.387,1.387,0,0,1,1.388,1.388Zm.006,0a1.393,1.393,0,1,0-1.393,1.393,1.393,1.393,0,0,0,1.393-1.393Z" transform="translate(-238.716 -234.323)" fill="#f7913b" fill-rule="evenodd"/>
      </g>
      <g id="Group_311" data-name="Group 311" clip-path="url(#clip-path)">
        <path id="Path_480" data-name="Path 480" d="M241.477,235.758a1.393,1.393,0,1,1-1.393-1.394,1.4,1.4,0,0,1,1.393,1.394Zm.006,0a1.4,1.4,0,1,0-1.4,1.4,1.4,1.4,0,0,0,1.4-1.4Z" transform="translate(-238.63 -234.242)" fill="#f7903a" fill-rule="evenodd"/>
      </g>
      <g id="Group_312" data-name="Group 312" clip-path="url(#clip-path)">
        <path id="Path_482" data-name="Path 482" d="M241.4,235.671a1.4,1.4,0,1,1-1.4-1.4,1.4,1.4,0,0,1,1.4,1.4Zm.006,0A1.406,1.406,0,1,0,240,237.077a1.4,1.4,0,0,0,1.406-1.406Z" transform="translate(-238.543 -234.156)" fill="#f79039" fill-rule="evenodd"/>
      </g>
      <g id="Group_313" data-name="Group 313" clip-path="url(#clip-path)">
        <path id="Path_484" data-name="Path 484" d="M241.322,235.59a1.406,1.406,0,1,1-1.406-1.406,1.41,1.41,0,0,1,1.406,1.406Zm.006,0A1.412,1.412,0,1,0,239.917,237a1.413,1.413,0,0,0,1.412-1.412Z" transform="translate(-238.463 -234.075)" fill="#f58e38" fill-rule="evenodd"/>
      </g>
      <g id="Group_314" data-name="Group 314" clip-path="url(#clip-path)">
        <path id="Path_486" data-name="Path 486" d="M241.248,235.5a1.412,1.412,0,1,1-1.412-1.412,1.413,1.413,0,0,1,1.412,1.412Zm.006,0a1.418,1.418,0,1,0-1.418,1.418,1.416,1.416,0,0,0,1.418-1.418Z" transform="translate(-238.382 -233.989)" fill="#f78e36" fill-rule="evenodd"/>
      </g>
      <g id="Group_315" data-name="Group 315" clip-path="url(#clip-path)">
        <path id="Path_488" data-name="Path 488" d="M241.162,235.418A1.418,1.418,0,1,1,239.744,234a1.416,1.416,0,0,1,1.418,1.418Zm.006,0a1.424,1.424,0,1,0-1.424,1.424,1.426,1.426,0,0,0,1.424-1.424Z" transform="translate(-238.29 -233.903)" fill="#f78e35" fill-rule="evenodd"/>
      </g>
      <g id="Group_316" data-name="Group 316" clip-path="url(#clip-path)">
        <path id="Path_490" data-name="Path 490" d="M241.089,235.338a1.424,1.424,0,1,1-1.424-1.424,1.426,1.426,0,0,1,1.424,1.424Zm.006,0a1.43,1.43,0,1,0-1.43,1.43,1.428,1.428,0,0,0,1.43-1.43Z" transform="translate(-238.211 -233.823)" fill="#f68d34" fill-rule="evenodd"/>
      </g>
      <g id="Group_317" data-name="Group 317" clip-path="url(#clip-path)">
        <path id="Path_492" data-name="Path 492" d="M241.015,235.252a1.43,1.43,0,1,1-1.43-1.43,1.428,1.428,0,0,1,1.43,1.43Zm.006,0a1.436,1.436,0,1,0-1.436,1.436,1.438,1.438,0,0,0,1.436-1.436Z" transform="translate(-238.131 -233.737)" fill="#f68d33" fill-rule="evenodd"/>
      </g>
      <g id="Group_318" data-name="Group 318" clip-path="url(#clip-path)">
        <path id="Path_494" data-name="Path 494" d="M240.934,235.165a1.436,1.436,0,1,1-1.436-1.436,1.439,1.439,0,0,1,1.436,1.436Zm.007,0a1.442,1.442,0,1,0-1.442,1.442,1.442,1.442,0,0,0,1.442-1.442Z" transform="translate(-238.044 -233.65)" fill="#f68b32" fill-rule="evenodd"/>
      </g>
      <g id="Group_319" data-name="Group 319" clip-path="url(#clip-path)">
        <path id="Path_496" data-name="Path 496" d="M240.854,235.084a1.442,1.442,0,1,1-1.442-1.442,1.441,1.441,0,0,1,1.442,1.442Zm.006,0a1.448,1.448,0,1,0-1.448,1.448,1.448,1.448,0,0,0,1.448-1.448Z" transform="translate(-237.957 -233.569)" fill="#f68b31" fill-rule="evenodd"/>
      </g>
      <g id="Group_320" data-name="Group 320" clip-path="url(#clip-path)">
        <path id="Path_498" data-name="Path 498" d="M240.779,235a1.448,1.448,0,1,1-1.448-1.448A1.452,1.452,0,0,1,240.779,235Zm.006,0a1.454,1.454,0,1,0-1.454,1.454A1.454,1.454,0,0,0,240.785,235Z" transform="translate(-237.877 -233.483)" fill="#f68a2f" fill-rule="evenodd"/>
      </g>
      <g id="Group_321" data-name="Group 321" clip-path="url(#clip-path)">
        <path id="Path_500" data-name="Path 500" d="M240.693,234.918a1.454,1.454,0,1,1-1.454-1.455,1.454,1.454,0,0,1,1.454,1.455Zm.006,0a1.461,1.461,0,1,0-1.46,1.46,1.457,1.457,0,0,0,1.46-1.46Z" transform="translate(-237.785 -233.403)" fill="#f68a2e" fill-rule="evenodd"/>
      </g>
      <g id="Group_322" data-name="Group 322" clip-path="url(#clip-path)">
        <path id="Path_502" data-name="Path 502" d="M240.62,234.833a1.461,1.461,0,1,1-1.46-1.46,1.465,1.465,0,0,1,1.46,1.46Zm.006,0a1.466,1.466,0,1,0-1.466,1.466,1.468,1.468,0,0,0,1.466-1.466Z" transform="translate(-237.705 -233.317)" fill="#f6892d" fill-rule="evenodd"/>
      </g>
      <g id="Group_323" data-name="Group 323" clip-path="url(#clip-path)">
        <path id="Path_504" data-name="Path 504" d="M240.545,234.747a1.466,1.466,0,1,1-1.466-1.467,1.468,1.468,0,0,1,1.466,1.467Zm.006,0a1.472,1.472,0,1,0-1.472,1.473,1.47,1.47,0,0,0,1.472-1.473Z" transform="translate(-237.624 -233.232)" fill="#f6882c" fill-rule="evenodd"/>
      </g>
      <g id="Group_324" data-name="Group 324" clip-path="url(#clip-path)">
        <path id="Path_506" data-name="Path 506" d="M240.458,234.666a1.472,1.472,0,1,1-1.472-1.473,1.47,1.47,0,0,1,1.472,1.473Zm.006,0a1.479,1.479,0,1,0-1.479,1.479,1.48,1.48,0,0,0,1.479-1.479Z" transform="translate(-237.532 -233.15)" fill="#f6882a" fill-rule="evenodd"/>
      </g>
      <g id="Group_325" data-name="Group 325" clip-path="url(#clip-path)">
        <path id="Path_508" data-name="Path 508" d="M240.384,234.579a1.479,1.479,0,1,1-1.479-1.479,1.48,1.48,0,0,1,1.479,1.479Zm.006,0a1.485,1.485,0,1,0-1.485,1.485,1.483,1.483,0,0,0,1.485-1.485Z" transform="translate(-237.452 -233.064)" fill="#f68729" fill-rule="evenodd"/>
      </g>
      <g id="Group_326" data-name="Group 326" clip-path="url(#clip-path)">
        <path id="Path_510" data-name="Path 510" d="M240.31,234.492a1.485,1.485,0,1,1-1.485-1.485,1.483,1.483,0,0,1,1.485,1.485Zm.006,0a1.491,1.491,0,1,0-1.491,1.491,1.493,1.493,0,0,0,1.491-1.491Z" transform="translate(-237.371 -232.977)" fill="#f68728" fill-rule="evenodd"/>
      </g>
      <g id="Group_327" data-name="Group 327" clip-path="url(#clip-path)">
        <path id="Path_512" data-name="Path 512" d="M240.23,234.412a1.491,1.491,0,1,1-1.491-1.491,1.493,1.493,0,0,1,1.491,1.491Zm.007,0a1.5,1.5,0,1,0-1.5,1.5,1.5,1.5,0,0,0,1.5-1.5Z" transform="translate(-237.285 -232.897)" fill="#f68627" fill-rule="evenodd"/>
      </g>
      <g id="Group_328" data-name="Group 328" clip-path="url(#clip-path)">
        <path id="Path_514" data-name="Path 514" d="M240.15,234.327a1.5,1.5,0,1,1-1.5-1.5,1.5,1.5,0,0,1,1.5,1.5Zm.006,0a1.5,1.5,0,1,0-1.5,1.5,1.5,1.5,0,0,0,1.5-1.5Z" transform="translate(-237.199 -232.812)" fill="#f68626" fill-rule="evenodd"/>
      </g>
      <g id="Group_329" data-name="Group 329" clip-path="url(#clip-path)">
        <path id="Path_516" data-name="Path 516" d="M240.076,234.246a1.5,1.5,0,1,1-1.5-1.5,1.507,1.507,0,0,1,1.5,1.5Zm.006,0a1.509,1.509,0,1,0-1.509,1.509,1.509,1.509,0,0,0,1.509-1.509Z" transform="translate(-237.119 -232.731)" fill="#f48525" fill-rule="evenodd"/>
      </g>
      <g id="Group_330" data-name="Group 330" clip-path="url(#clip-path)">
        <path id="Path_518" data-name="Path 518" d="M240,234.16a1.506,1.506,0,1,1-1.509-1.509A1.509,1.509,0,0,1,240,234.16Zm.007,0a1.515,1.515,0,1,0-1.516,1.515A1.516,1.516,0,0,0,240,234.16Z" transform="translate(-237.033 -232.645)" fill="#f48424" fill-rule="evenodd"/>
      </g>
      <g id="Group_331" data-name="Group 331" clip-path="url(#clip-path)">
        <path id="Path_520" data-name="Path 520" d="M239.916,234.073a1.512,1.512,0,1,1-1.516-1.515,1.52,1.52,0,0,1,1.516,1.515Zm.006,0a1.521,1.521,0,1,0-1.521,1.521,1.522,1.522,0,0,0,1.521-1.521Z" transform="translate(-236.946 -232.558)" fill="#f48423" fill-rule="evenodd"/>
      </g>
      <g id="Group_332" data-name="Group 332" clip-path="url(#clip-path)">
        <path id="Path_522" data-name="Path 522" d="M239.841,233.993a1.518,1.518,0,1,1-1.521-1.521,1.522,1.522,0,0,1,1.521,1.521Zm.006,0a1.527,1.527,0,1,0-1.527,1.527,1.524,1.524,0,0,0,1.527-1.527Z" transform="translate(-236.865 -232.478)" fill="#f48422" fill-rule="evenodd"/>
      </g>
      <g id="Group_333" data-name="Group 333" clip-path="url(#clip-path)">
        <path id="Path_524" data-name="Path 524" d="M239.76,233.907a1.524,1.524,0,1,1-1.527-1.527,1.532,1.532,0,0,1,1.527,1.527Zm.006,0a1.533,1.533,0,1,0-1.533,1.534,1.535,1.535,0,0,0,1.533-1.534Z" transform="translate(-236.779 -232.391)" fill="#f48422" fill-rule="evenodd"/>
      </g>
      <g id="Group_334" data-name="Group 334" clip-path="url(#clip-path)">
        <path id="Path_526" data-name="Path 526" d="M239.681,233.826a1.53,1.53,0,1,1-1.533-1.534,1.535,1.535,0,0,1,1.533,1.534Zm.006,0a1.54,1.54,0,1,0-1.54,1.539,1.537,1.537,0,0,0,1.54-1.539Z" transform="translate(-236.694 -232.311)" fill="#f48221" fill-rule="evenodd"/>
      </g>
      <g id="Group_335" data-name="Group 335" clip-path="url(#clip-path)">
        <path id="Path_528" data-name="Path 528" d="M239.607,233.741a1.537,1.537,0,1,1-1.54-1.539,1.537,1.537,0,0,1,1.54,1.539Zm.006,0a1.546,1.546,0,1,0-1.546,1.546,1.548,1.548,0,0,0,1.546-1.546Z" transform="translate(-236.613 -232.225)" fill="#f48220" fill-rule="evenodd"/>
      </g>
      <g id="Group_336" data-name="Group 336" clip-path="url(#clip-path)">
        <path id="Path_530" data-name="Path 530" d="M239.613,233.741a1.543,1.543,0,1,1-1.546-1.546,1.548,1.548,0,0,1,1.546,1.546Zm.006,0a1.549,1.549,0,1,0-1.552,1.552,1.545,1.545,0,0,0,1.552-1.552Z" transform="translate(-236.613 -232.225)" fill="#f48220" fill-rule="evenodd"/>
      </g>
    </g>
    <path id="Path_532" data-name="Path 532" d="M113.85,233.458h-.87v3.036h.864a1.573,1.573,0,0,0,1.084-.353,1.516,1.516,0,0,0-1.077-2.684Zm.694,2.282a1.14,1.14,0,0,1-.809.237h-.159v-2h.159a1.1,1.1,0,0,1,.809.244,1.03,1.03,0,0,1,.323.755,1.058,1.058,0,0,1-.323.767Z" transform="translate(-106.439 -224.86)" fill="#081a23" fill-rule="evenodd"/>
    <rect id="Rectangle_460" data-name="Rectangle 460" width="0.59" height="3.036" transform="translate(9.311 8.598)" fill="#081a23"/>
    <path id="Path_533" data-name="Path 533" d="M167.316,233.953c-.353-.133-.462-.219-.462-.383,0-.188.188-.334.444-.334a.61.61,0,0,1,.475.243l.31-.4a1.32,1.32,0,0,0-.889-.341.894.894,0,0,0-.949.87c0,.42.195.633.748.827a2.631,2.631,0,0,1,.408.177.364.364,0,0,1,.177.31.427.427,0,0,1-.456.426.693.693,0,0,1-.645-.4l-.383.371a1.194,1.194,0,0,0,1.053.578.98.98,0,0,0,1.04-1c0-.481-.195-.7-.87-.943Z" transform="translate(-155.967 -224.186)" fill="#081a23" fill-rule="evenodd"/>
    <path id="Path_534" data-name="Path 534" d="M199.908,234.054a1.572,1.572,0,0,0,1.6,1.582,1.635,1.635,0,0,0,.742-.176v-.7a.955.955,0,0,1-.718.335.989.989,0,0,1-1.016-1.047.988.988,0,0,1,1.734-.7v-.694a1.5,1.5,0,0,0-.73-.188,1.6,1.6,0,0,0-1.612,1.588Z" transform="translate(-187.501 -223.934)" fill="#081a23" fill-rule="evenodd"/>
    <path id="Path_535" data-name="Path 535" d="M285.495,235.5l-.809-2.038h-.646l1.284,3.109h.316l1.308-3.109h-.639Z" transform="translate(-265.955 -224.86)" fill="#081a23" fill-rule="evenodd"/>
    <path id="Path_536" data-name="Path 536" d="M331.2,236.494h1.674v-.517H331.8v-.815h1.04v-.518H331.8v-.669h1.083v-.517H331.2Z" transform="translate(-309.937 -224.86)" fill="#081a23" fill-rule="evenodd"/>
    <path id="Path_537" data-name="Path 537" d="M363.727,234.359c0-.572-.4-.9-1.077-.9h-.876v3.036h.59v-1.223h.079l.822,1.223h.724l-.955-1.278a.81.81,0,0,0,.694-.858Zm-1.186.5h-.177v-.918h.182c.371,0,.572.152.572.45s-.2.468-.578.468Z" transform="translate(-338.443 -224.86)" fill="#081a23" fill-rule="evenodd"/>
    <path id="Path_538" data-name="Path 538" d="M394.33,235.705c0-.055-.037-.085-.1-.085h-.085v.268h.061v-.1l.073.1h.079l-.086-.11a.072.072,0,0,0,.055-.073Zm-.11.036h-.012v-.073h.012c.031,0,.049.012.049.037s-.018.036-.049.036Z" transform="translate(-368.632 -226.876)" fill="#231f20" fill-rule="evenodd"/>
    <path id="Path_539" data-name="Path 539" d="M392.307,234.178a.233.233,0,0,0-.237.231.237.237,0,0,0,.237.231.231.231,0,0,0,0-.462Zm0,.42a.189.189,0,0,1-.188-.188.182.182,0,0,1,.188-.189.189.189,0,0,1,0,.377Z" transform="translate(-366.695 -225.531)" fill="#231f20" fill-rule="evenodd"/>
  </g>
</svg>
