<svg id="card_x2C__credit_x2C__Mastercard_x2C___bank_x2C__debit_x2C_" xmlns="http://www.w3.org/2000/svg" width="32.391" height="20.245" viewBox="0 0 32.391 20.245">
  <g id="Group_340" data-name="Group 340" transform="translate(0 0)">
    <path id="Path_552" data-name="Path 552" d="M48.393,125.159a1.086,1.086,0,0,1-1.083,1.083H17.085A1.086,1.086,0,0,1,16,125.159V107.08A1.086,1.086,0,0,1,17.085,106H47.31a1.086,1.086,0,0,1,1.083,1.083v18.079Z" transform="translate(-16.002 -105.997)" fill="#14477c" fill-rule="evenodd"/>
    <path id="Path_553" data-name="Path 553" d="M233.436,181.547l.3-.006.3-.018.292-.043.286-.049.28-.067.28-.073.268-.1.268-.1.255-.116.249-.128.244-.14.237-.152.231-.164.219-.17.207-.183.207-.2.189-.2.183-.213.176-.219.164-.225.146-.237.146-.243.121-.249.122-.262.1-.262.091-.274.079-.274.067-.28.049-.292.037-.286.024-.3.006-.3-.006-.3-.024-.3-.037-.286-.049-.286-.067-.28-.079-.274-.091-.274-.1-.261-.122-.256-.121-.249-.146-.243-.146-.237-.164-.225-.176-.219-.183-.213-.189-.2-.207-.189-.207-.183-.219-.176-.231-.158-.237-.152-.244-.14-.249-.128-.255-.116-.268-.1-.268-.091-.28-.079-.28-.067-.286-.049-.292-.037-.3-.025-.3-.006-.3.006-.292.025-.292.037-.286.049-.28.067-.28.079-.268.091-.261.1-.256.116-.249.128-.243.14-.237.152-.225.158-.22.176-.213.183-.2.189-.2.2-.176.213-.177.219-.158.225-.152.237-.14.243-.128.249-.116.256-.1.261-.091.274-.079.274-.067.28-.048.286-.037.286-.025.3-.006.3.006.3.025.3.037.286.048.292.067.28.079.274.091.274.1.262.116.262.128.249.14.243.152.237.158.225.177.219.176.213.2.2.2.2.213.183.22.17.225.164.237.152.243.14.249.128.256.116.261.1.268.1.28.073.28.067.286.049.292.043.292.018Z" transform="translate(-213.355 -165.617)" fill="#fbb230" fill-rule="evenodd"/>
    <path id="Path_554" data-name="Path 554" d="M117.953,181.547l.3-.006.292-.018.292-.043.286-.049.28-.067.28-.073.267-.1.261-.1.256-.116.249-.128.243-.14.237-.152.225-.164.22-.17.213-.183.2-.2.2-.2.177-.213.176-.219.158-.225.152-.237.14-.243.128-.249.116-.262.1-.262.091-.274.079-.274.067-.28.048-.292.037-.286.025-.3.006-.3-.006-.3-.025-.3-.037-.286-.048-.286-.067-.28-.079-.274-.091-.274-.1-.261-.116-.256-.128-.249-.14-.243-.152-.237-.158-.225-.176-.219-.177-.213-.2-.2-.2-.189-.213-.183-.22-.176-.225-.158-.237-.152-.243-.14-.249-.128-.256-.116-.261-.1-.267-.091-.28-.079-.28-.067-.286-.049-.292-.037-.292-.025-.3-.006-.3.006-.3.025-.292.037-.286.049-.279.067-.28.079-.268.091-.268.1-.255.116-.249.128-.244.14-.237.152-.231.158-.219.176-.207.183-.207.189-.189.2-.183.213-.176.219-.164.225-.146.237-.146.243-.121.249-.122.256-.1.261-.091.274-.079.274-.061.28-.055.286-.036.286-.025.3-.006.3.006.3.025.3.036.286.055.292.061.28.079.274.091.274.1.262.122.262.121.249.146.243.146.237.164.225.176.219.183.213.189.2.207.2.207.183.219.17.231.164.237.152.244.14.249.128.255.116.268.1.268.1.28.073.279.067.286.049.292.043.3.018Z" transform="translate(-105.643 -165.617)" fill="#eb2230" fill-rule="evenodd"/>
    <path id="Path_555" data-name="Path 555" d="M245.943,198.559h3.085v-.316h-2.818Z" transform="translate(-230.426 -192.018)" fill="#fbb230" fill-rule="evenodd"/>
    <path id="Path_556" data-name="Path 556" d="M239.091,208.929h3.548v-.316h-3.365Z" transform="translate(-224.037 -201.688)" fill="#fbb230" fill-rule="evenodd"/>
    <path id="Path_557" data-name="Path 557" d="M233.952,219.3h3.895v-.316h-3.755Z" transform="translate(-219.244 -211.358)" fill="#fbb230" fill-rule="evenodd"/>
    <path id="Path_558" data-name="Path 558" d="M230.434,229.756h4.132v-.31h-4.035Z" transform="translate(-215.964 -221.115)" fill="#fbb230" fill-rule="evenodd"/>
    <path id="Path_559" data-name="Path 559" d="M231.165,279.987h4v-.316h-4.1Z" transform="translate(-216.555 -267.951)" fill="#fbb230" fill-rule="evenodd"/>
    <path id="Path_560" data-name="Path 560" d="M234.819,290.356h3.712v-.316h-3.858Z" transform="translate(-219.917 -277.62)" fill="#fbb230" fill-rule="evenodd"/>
    <path id="Path_561" data-name="Path 561" d="M240.284,300.727h3.292v-.316h-3.493Z" transform="translate(-224.962 -287.292)" fill="#fbb230" fill-rule="evenodd"/>
    <path id="Path_562" data-name="Path 562" d="M247.671,311.1h2.72v-.316h-3Z" transform="translate(-231.776 -296.961)" fill="#fbb230" fill-rule="evenodd"/>
    <path id="Path_563" data-name="Path 563" d="M228.363,240.122h4.272v-.311h-4.211Z" transform="translate(-214.032 -230.781)" fill="#fbb230" fill-rule="evenodd"/>
    <path id="Path_564" data-name="Path 564" d="M266.954,269.616h1.631V269.3h-1.57Z" transform="translate(-250.019 -258.28)" fill="#fbb230" fill-rule="evenodd"/>
    <path id="Path_565" data-name="Path 565" d="M268.846,259.246h1.5v-.316h-1.442Z" transform="translate(-251.784 -248.61)" fill="#fbb230" fill-rule="evenodd"/>
    <path id="Path_566" data-name="Path 566" d="M226.736,258.93h.426v.316h-.4Z" transform="translate(-212.515 -248.61)" fill="#fbb230" fill-rule="evenodd"/>
    <path id="Path_567" data-name="Path 567" d="M387.8,304.379a.277.277,0,0,1,.274.274.274.274,0,1,1-.548,0,.276.276,0,0,1,.274-.274Zm0,.049a.228.228,0,1,1-.225.225.23.23,0,0,1,.225-.225Z" transform="translate(-362.451 -290.992)" fill="#fbb230" fill-rule="evenodd"/>
    <path id="Path_568" data-name="Path 568" d="M390.049,307.043v-.231h.1a.133.133,0,0,1,.055.006.085.085,0,0,1,.024.018.092.092,0,0,1,.012.037.074.074,0,0,1-.012.043.12.12,0,0,1-.049.024.105.105,0,0,1,.049.055l.03.049H390.2l-.037-.055a.067.067,0,0,0-.024-.03c0-.006-.006-.006-.012-.012H390.1v.1Zm.048-.134h.031c.024,0,.036,0,.042-.006s.013,0,.013-.006a.032.032,0,0,0,0-.037c-.007-.006-.013-.006-.019-.012H390.1v.061Z" transform="translate(-364.808 -293.261)" fill="#fbb230"/>
    <path id="Path_569" data-name="Path 569" d="M386.9,270.472a.274.274,0,1,1-.274.274.273.273,0,0,1,.274-.274Zm0,.049a.228.228,0,1,1-.231.225.23.23,0,0,1,.231-.225Z" transform="translate(-361.613 -259.373)" fill="#fff" fill-rule="evenodd"/>
    <path id="Path_570" data-name="Path 570" d="M389.143,273.13V272.9h.1a.133.133,0,0,1,.055.006c.006,0,.018.012.024.018a.083.083,0,0,1,.012.037.053.053,0,0,1-.018.042c-.006.012-.024.018-.042.025.006.006.018.012.025.018a.3.3,0,0,1,.024.036l.031.043H389.3l-.037-.049c-.012-.018-.018-.03-.025-.03s-.006-.012-.012-.012h-.037v.091h-.043Zm.043-.128h.037c.024,0,.036,0,.042-.006a.022.022,0,0,0,.018-.025.064.064,0,0,0-.006-.018c-.006-.006-.012-.012-.018-.012h-.073V273Z" transform="translate(-363.963 -261.642)" fill="#fff"/>
    <path id="Path_571" data-name="Path 571" d="M332.7,248.288l.4-2.069h.493l.061.213a.71.71,0,0,1,.548-.213l-.152.548c-.134,0-.341-.025-.511.377a6.963,6.963,0,0,0-.256,1.144Z" transform="translate(-311.324 -236.757)" fill="#fff" fill-rule="evenodd"/>
    <path id="Path_572" data-name="Path 572" d="M216.1,238.554h.547l-.121.548h.3l-.091.426h-.274l-.152.822c-.03.152,0,.3.3.243l-.061.457a.554.554,0,0,1-.883-.548Z" transform="translate(-202.19 -229.609)" fill="#fff" fill-rule="evenodd"/>
    <path id="Path_573" data-name="Path 573" d="M233.292,247.375c.061-.335.213-1.156-.767-1.156a1.053,1.053,0,0,0-1.035,1.034.9.9,0,0,0,.943,1.035,2.564,2.564,0,0,0,.736-.091l.091-.426a3.027,3.027,0,0,1-.645.061c-.213,0-.578,0-.517-.457h1.192Z" transform="translate(-216.941 -236.757)" fill="#fff" fill-rule="evenodd"/>
    <path id="Path_574" data-name="Path 574" d="M123.675,242.4l.487-2.495h-.949l-.669,1.521-.122-1.521h-.882l-.487,2.495h.548l.365-1.8.152,1.8h.517l.791-1.765-.335,1.765Z" transform="translate(-113.963 -230.867)" fill="#fff" fill-rule="evenodd"/>
    <path id="Path_575" data-name="Path 575" d="M164.24,246.4l-.091.457c.152,0,.517-.061.7-.061s.426-.03.335.274c-.152,0-1.156-.152-1.309.73-.085.584.609.8,1.035.517l.061.121h.517l.213-1.126c.225-1.016-.755-1.035-1.461-.913Z" transform="translate(-153.889 -236.881)" fill="#fff" fill-rule="evenodd"/>
    <path id="Path_576" data-name="Path 576" d="M281.176,240.488a.634.634,0,0,0-.4-.085.7.7,0,0,0-.627.627c-.085.572.286.828.827.657l.146.487c-.925.462-1.808-.256-1.515-1.375.237-.846,1.357-1.357,1.917-.657Z" transform="translate(-261.765 -230.782)" fill="#fff" fill-rule="evenodd"/>
    <path id="Path_577" data-name="Path 577" d="M354.082,238.889c-1.491-1.12-2.069,1.825-.913,1.825a1.145,1.145,0,0,0,.487-.152l.061.152h.609l.487-2.617h-.578Z" transform="translate(-329.844 -229.184)" fill="#fff" fill-rule="evenodd"/>
    <path id="Path_578" data-name="Path 578" d="M305.016,246.4l-.091.457c.152,0,.517-.061.7-.061s.4-.03.335.274c-.152,0-1.156-.152-1.308.73a.561.561,0,0,0,.578.639.68.68,0,0,0,.456-.121l.061.121h.518l.213-1.126c.231-1.016-.749-1.035-1.461-.913Z" transform="translate(-285.166 -236.881)" fill="#fff" fill-rule="evenodd"/>
    <path id="Path_579" data-name="Path 579" d="M240.625,252.3h.7c.079-.554-.584-.444-.7,0Z" transform="translate(-225.467 -242.078)" fill="#eb2230" fill-rule="evenodd"/>
    <path id="Path_580" data-name="Path 580" d="M173,263.139a.737.737,0,0,0-.487.061c-.182.121-.243.334-.03.4a.414.414,0,0,0,.486-.244Z" transform="translate(-161.796 -252.521)" fill="#eb2230" fill-rule="evenodd"/>
    <path id="Path_581" data-name="Path 581" d="M361.1,253.287c-.183-.244-.578-.061-.7.4-.091.3.091.517.274.517.383,0,.615-.627.426-.913Z" transform="translate(-337.14 -243.247)" fill="#fbb230" fill-rule="evenodd"/>
    <path id="Path_582" data-name="Path 582" d="M314.215,263.139a.736.736,0,0,0-.487.061c-.182.121-.243.334-.03.4a.4.4,0,0,0,.486-.244Z" transform="translate(-293.483 -252.521)" fill="#fbb230" fill-rule="evenodd"/>
    <path id="Path_583" data-name="Path 583" d="M258.3,248.737l.031-.213.365-1.856h.487l.061.213a.711.711,0,0,1,.548-.213l-.152.548c-.116,0-.359-.024-.542.462a7.427,7.427,0,0,0-.219,1.059Z" transform="translate(-241.946 -237.175)" fill="#fff" fill-rule="evenodd"/>
    <path id="Path_584" data-name="Path 584" d="M193.3,247.684h-.049l-.024-.006-.025-.006h-.024l-.024-.006a1.763,1.763,0,0,0-.31-.012c-.28.024-.4.2-.165.334.189.11.335.091.462.213a.629.629,0,0,1-.17.937l-.054.024-.061.025-.067.018-.061.018a2.2,2.2,0,0,1-.974-.061l.079-.408c.231.049.609.152.785.031.2-.134.018-.292-.128-.359l-.073-.024-.073-.03a.577.577,0,0,1,.1-1.108,2.2,2.2,0,0,1,.664-.03h.042a1.123,1.123,0,0,1,.152.024h.024l.018.006h.018l.012.006h.018l-.1.414Z" transform="translate(-179.893 -237.692)" fill="#fff" fill-rule="evenodd"/>
  </g>
</svg>
