<svg id="card_x2C__income_x2C__pattern_x2C__paying_x2C__payment_x2C__visa_x2C_" xmlns="http://www.w3.org/2000/svg" width="32.385" height="20.239" viewBox="0 0 32.385 20.239">
  <g id="Group_341" data-name="Group 341" transform="translate(0 0)">
    <path id="Path_585" data-name="Path 585" d="M48.434,125.207a1.075,1.075,0,0,1-1.077,1.077H17.126a1.075,1.075,0,0,1-1.077-1.077V107.122a1.075,1.075,0,0,1,1.077-1.077H47.357a1.075,1.075,0,0,1,1.077,1.077Z" transform="translate(-16.049 -106.045)" fill="#3a58a8" fill-rule="evenodd"/>
    <path id="Path_586" data-name="Path 586" d="M215.02,217.079h-1.582L214.43,211h1.582Z" transform="translate(-200.118 -203.917)" fill="#fff" fill-rule="evenodd"/>
    <path id="Path_587" data-name="Path 587" d="M117.841,211l-1.5,4.181-.183-.9h0l-.53-2.732a.682.682,0,0,0-.755-.548h-2.489l-.031.1a5.946,5.946,0,0,1,1.655.694l1.375,5.281h1.649L119.545,211Z" transform="translate(-105.853 -203.917)" fill="#fff" fill-rule="evenodd"/>
    <path id="Path_588" data-name="Path 588" d="M320.408,217.079h1.454L320.6,211h-1.272a.723.723,0,0,0-.73.457l-2.361,5.622h1.649l.329-.906h2.014Zm-1.741-2.148.834-2.276.469,2.276Z" transform="translate(-295.976 -203.917)" fill="#fff" fill-rule="evenodd"/>
    <path id="Path_589" data-name="Path 589" d="M255.818,210.949l.225-1.3a4.551,4.551,0,0,0-1.424-.268c-.785,0-2.653.347-2.653,2.014,0,1.57,2.19,1.588,2.19,2.416s-1.965.675-2.61.152l-.237,1.369a4.464,4.464,0,0,0,1.789.341c1.077,0,2.708-.56,2.708-2.081,0-1.576-2.209-1.728-2.209-2.416s1.54-.6,2.221-.225Z" transform="translate(-235.433 -202.406)" fill="#fff" fill-rule="evenodd"/>
    <path id="Path_590" data-name="Path 590" d="M116.155,214.28l-.53-2.732a.682.682,0,0,0-.755-.548h-2.489l-.031.1a6.143,6.143,0,0,1,2.349,1.18,4.749,4.749,0,0,1,1.455,2Z" transform="translate(-105.853 -203.917)" fill="#faa634" fill-rule="evenodd"/>
  </g>
</svg>
